<?xml version="1.0" encoding="utf-8"?>
<!-- Generator: Adobe Illustrator 27.5.0, SVG Export Plug-In . SVG Version: 6.00 Build 0)  -->
<svg version="1.1" id="Layer_1" xmlns="http://www.w3.org/2000/svg" xmlns:xlink="http://www.w3.org/1999/xlink" x="0px" y="0px"
	 viewBox="0 0 3000 2000" style="enable-background:new 0 0 3000 2000;" xml:space="preserve">
<g>
	<rect style="fill:#FFFFFF;" width="3000" height="2000"/>
	<g>
		<path style="fill:#EBF2F9;" d="M2357.762,1710.415c0,0,271.381,49.839,357.77-138.71
			c112.078-244.615-118.184-430.092-294.785-395.535c-384.817,75.299-95.321-648.925-873.802-444.579
			c-174.179,45.721-554.827-546.57-809.64,77.263C694.813,912.882,595.94,928.722,435.898,997.235
			c-313.218,134.087-170.002,715.441,53.804,717.724S2357.762,1710.415,2357.762,1710.415z"/>
		<g>
			<path style="fill:#4A75CB;" d="M1198.272,1002.668l-56.353,670.049c0,0-5.904,40.617,24.308,40.688
				c49.675,0.119,247.249,0,247.249,0s-37.388-8.455-36.935-27.478c0.534-22.424,65.865-689.601,65.865-689.601L1198.272,1002.668z"
				/>
			<path style="fill:#AFCDFB;" d="M1429.507,1701.249c-9.77,0.029-198.478,0.62-246.853,0
				c-21.083-0.263-24.779-18.745-24.954-30.707c-0.087-5.734,0.641-9.974,0.641-9.974l1.465-17.416l3.735-44.388l3.298-39.216
				l4.24-50.394l3.57-42.534l40.041-476.116l244.136-6.336c0,0-27.515,279.21-46.978,482.452
				c-2.173,22.645-4.24,44.357-6.151,64.626c-0.621,6.472-1.212,12.797-1.795,18.958c-1.804,19.23-3.454,36.888-4.89,52.479
				c-0.757,8.218-1.455,15.853-2.086,22.849c-2.483,27.408-3.939,44.912-3.958,48.239c-0.01,1.94,0.155,3.745,0.475,5.424
				C1397.451,1700.551,1425.839,1701.249,1429.507,1701.249z"/>
			<polygon style="fill:#AFCDFB;" points="1777.474,638.052 605.376,638.052 742.642,1189.42 761.436,1264.932 825.368,1521.742 
				2013.115,1521.742 			"/>
			<polygon style="fill:#699DEE;" points="605.375,638.051 586.351,644.393 800.077,1540.925 825.37,1521.745 			"/>
			<polygon style="fill:#4A75CB;" points="800.077,1540.925 1980.514,1540.925 2013.111,1521.745 825.37,1521.745 			"/>
			
				<rect x="1214.611" y="1701.517" transform="matrix(-1 -1.224647e-16 1.224647e-16 -1 2684.8047 3415.1787)" style="fill:#4A75CB;" width="255.582" height="12.146"/>
			<polygon style="fill:#4A75CB;" points="1405.223,1540.92 1403.902,1550.205 1163.541,1598.765 1157.692,1596.34 1160.5,1539.09 
				1384.333,1534.833 			"/>
			<path style="fill:#699DEE;" d="M1437.667,1701.5c-9.77,0.029-206.637,0.369-255.013-0.251
				c-21.083-0.263-24.779-18.745-24.954-30.707l239.227-45.009c-2.483,27.408-3.939,44.912-3.958,48.239
				c-0.01,1.94,0.155,3.745,0.475,5.424C1397.451,1700.551,1433.999,1701.5,1437.667,1701.5z"/>
			<polygon style="opacity:0.2;fill:#699DEE;" points="1331.689,1348.139 825.368,1521.744 782.129,1348.036 			"/>
			<polygon style="fill:#699DEE;" points="1777.473,638.051 605.375,638.051 782.026,1348.036 1967.646,1348.261 			"/>
		</g>
		<path style="fill:#4A75CB;" d="M1450.729,1438.04c-3.386-17.417-20.25-31.536-37.668-31.536
			c-17.417,0-28.792,14.119-25.406,31.536c3.385,17.418,20.25,31.538,37.667,31.538S1454.115,1455.458,1450.729,1438.04z"/>
		<polygon style="fill:#FFFFFF;" points="1912.367,1317.484 814.928,1317.484 690.645,822.383 681.119,784.416 672.987,752.031 
			653.927,676.094 1735.549,676.094 1756.48,752.031 1765.409,784.416 1775.874,822.383 		"/>
		<polygon style="fill:#F1A34F;" points="1735.549,676.094 653.927,676.094 672.987,752.031 1756.48,752.031 		"/>
		<g>
			<path style="fill:#E9F3FE;" d="M705.798,700.919c-5.243,0-8.433,4.25-7.125,9.493c1.307,5.243,6.616,9.493,11.859,9.493
				c5.243,0,8.433-4.25,7.125-9.493C716.351,705.169,711.041,700.919,705.798,700.919z"/>
			<path style="fill:#E9F3FE;" d="M737.339,700.919c-5.243,0-8.433,4.25-7.126,9.493c1.307,5.243,6.617,9.493,11.86,9.493
				c5.242,0,8.433-4.25,7.126-9.493C747.892,705.169,742.582,700.919,737.339,700.919z"/>
			<path style="fill:#E9F3FE;" d="M783.162,710.412c-1.307-5.243-6.617-9.493-11.86-9.493c-5.243,0-8.433,4.25-7.125,9.493
				c1.307,5.243,6.617,9.493,11.859,9.493C781.279,719.905,784.469,715.655,783.162,710.412z"/>
		</g>
		<path style="fill:#283250;" d="M2701.914,1715.808H298.086c-1.18,0-2.145-0.966-2.145-2.146l0,0c0-1.18,0.965-2.145,2.145-2.145
			h2403.828c1.179,0,2.145,0.965,2.145,2.145l0,0C2704.059,1714.842,2703.093,1715.808,2701.914,1715.808z"/>
		<g>
			<path style="fill:#AA413E;" d="M914.271,1640.104H792.303c-15.696,0-28.419-12.724-28.419-28.42v-121.968
				c0-15.695,12.724-28.419,28.419-28.419h121.968c15.696,0,28.419,12.724,28.419,28.419v121.968
				C942.69,1627.381,929.967,1640.104,914.271,1640.104z"/>
			<path style="fill:#C65447;" d="M937.954,1640.104H815.986c-15.696,0-28.419-12.724-28.419-28.42v-121.968
				c0-15.695,12.724-28.419,28.419-28.419h121.968c15.696,0,28.419,12.724,28.419,28.419v121.968
				C966.373,1627.381,953.65,1640.104,937.954,1640.104z"/>
		</g>
		<g>
			<path style="fill:#D86713;" d="M1964.391,462.431h-121.968c-15.695,0-28.419-12.724-28.419-28.42V312.044
				c0-15.695,12.724-28.419,28.419-28.419h121.968c15.695,0,28.42,12.724,28.42,28.419v121.968
				C1992.811,449.707,1980.086,462.431,1964.391,462.431z"/>
			<path style="fill:#F1A34F;" d="M1988.074,462.431h-121.968c-15.696,0-28.42-12.724-28.42-28.42V312.044
				c0-15.695,12.724-28.419,28.42-28.419h121.968c15.695,0,28.419,12.724,28.419,28.419v121.968
				C2016.493,449.707,2003.77,462.431,1988.074,462.431z"/>
		</g>
		<path style="fill:#82B479;" d="M635.494,711.962H513.526c-15.696,0-28.419-12.724-28.419-28.419V561.575
			c0-15.696,12.724-28.42,28.419-28.42h121.968c15.696,0,28.419,12.724,28.419,28.42v121.967
			C663.913,699.238,651.189,711.962,635.494,711.962z"/>
		<path style="fill:#A8D29F;" d="M659.177,711.962H537.209c-15.696,0-28.42-12.724-28.42-28.419V561.575
			c0-15.696,12.724-28.42,28.42-28.42h121.968c15.695,0,28.419,12.724,28.419,28.42v121.967
			C687.596,699.238,674.872,711.962,659.177,711.962z"/>
		<path style="fill:#FFFFFF;" d="M918.14,1565.37l-11.045-6.08c0.697-2.728,1.068-5.586,1.068-8.531
			c0-5.209-1.165-10.145-3.239-14.568l9.781-8.028l-10.829-13.193l-9.803,8.046c-3.478-2.546-7.447-4.458-11.745-5.557v-12.681
			h-17.069v12.681c-6.402,1.636-12.078,5.074-16.472,9.735l-11.109-6.115l-8.231,14.953l11.071,6.095
			c-0.713,2.759-1.094,5.651-1.094,8.633c0,5.177,1.151,10.081,3.201,14.484l-9.743,7.997l10.83,13.193l9.728-7.984
			c3.495,2.573,7.492,4.504,11.821,5.61v12.564h17.069v-12.564c6.437-1.645,12.141-5.111,16.544-9.812l11.036,6.075L918.14,1565.37z
			 M873.793,1571.659c-11.543,0-20.9-9.357-20.9-20.9s9.357-20.9,20.9-20.9c11.543,0,20.901,9.357,20.901,20.9
			S885.336,1571.659,873.793,1571.659z"/>
		<g>
			<path style="fill:#FFFFFF;" d="M1845.791,370.637l55.472-25.77v12.249l-41.95,18.375v0.232l41.95,18.374v12.25l-55.472-25.771
				V370.637z"/>
			<path style="fill:#FFFFFF;" d="M1909.813,418.52l24.73-83.784h11.673l-24.731,83.784H1909.813z"/>
			<path style="fill:#FFFFFF;" d="M2008.389,380.922l-55.471,25.424v-12.25l42.874-18.374v-0.232l-42.874-18.375v-12.249
				l55.471,25.424V380.922z"/>
		</g>
		<g>
			<path style="fill:#FFFFFF;" d="M536.977,616.709c10.405-0.302,11.46-5.73,11.46-10.254c0-3.771-0.453-7.691-0.905-11.763
				c-0.451-4.072-0.754-8.143-0.754-11.914c0-14.175,8.898-20.359,22.922-20.359h5.278v12.819h-2.714
				c-6.786,0-9.199,4.071-9.199,10.707c0,2.714,0.453,5.428,0.754,8.596c0.301,3.016,0.754,6.484,0.754,10.255
				c0.151,11.461-4.524,15.684-12.818,17.493v0.301c8.293,1.81,12.969,6.183,12.818,17.645c0,3.921-0.453,7.389-0.754,10.556
				c-0.301,3.016-0.754,5.881-0.754,8.445c0,6.636,2.262,10.858,9.199,10.858h2.714v12.668h-5.428
				c-13.422,0-22.773-5.429-22.773-20.51c0-3.77,0.303-7.842,0.754-11.914c0.453-4.071,0.905-7.993,0.905-11.762
				c0-4.223-1.055-9.954-11.46-10.255V616.709z"/>
			<path style="fill:#FFFFFF;" d="M653.094,628.321c-10.254,0.301-11.461,6.032-11.461,10.255c0,3.77,0.453,7.691,0.905,11.762
				c0.453,4.072,0.904,8.143,0.904,11.914c0,15.081-9.349,20.51-22.921,20.51h-5.429v-12.668h2.714
				c6.938-0.151,9.199-4.223,9.199-10.858c0-2.563-0.301-5.429-0.754-8.445c-0.301-3.167-0.754-6.635-0.754-10.556
				c-0.15-11.462,4.524-15.835,12.969-17.645v-0.301c-8.445-1.81-13.119-6.032-12.969-17.493c0-3.771,0.453-7.239,0.754-10.255
				c0.453-3.168,0.754-5.882,0.754-8.596c0-6.636-2.413-10.557-9.199-10.707h-2.714v-12.819h5.278
				c14.176,0,23.072,6.184,23.072,20.359c0,3.77-0.451,7.842-0.904,11.914c-0.453,4.072-0.905,7.993-0.905,11.763
				c0,4.524,1.206,9.953,11.461,10.254V628.321z"/>
		</g>
		<path style="fill:#F1A34F;" d="M1110.378,806.678H731.922c-3.64,0-6.842-2.406-7.854-5.903l0,0
			c-1.515-5.23,2.409-10.452,7.854-10.452h378.456c3.64,0,6.842,2.406,7.854,5.902l0,0
			C1119.748,801.456,1115.823,806.678,1110.378,806.678z"/>
		<path style="fill:#A8D29F;" d="M1559.864,843.992H740.803c-3.641,0-6.842-2.406-7.855-5.902l0,0
			c-1.515-5.23,2.41-10.452,7.855-10.452h819.062c3.64,0,6.842,2.406,7.854,5.902l0,0
			C1569.233,838.771,1565.31,843.992,1559.864,843.992z"/>
		<path style="fill:#699DEE;" d="M1283.417,881.307H750.089c-3.64,0-6.842-2.406-7.854-5.902l0,0
			c-1.515-5.23,2.41-10.452,7.854-10.452h533.327c3.64,0,6.842,2.406,7.854,5.902l0,0
			C1292.786,876.085,1288.862,881.307,1283.417,881.307z"/>
		<path style="fill:#F1A34F;" d="M1192.682,1079.046H814.226c-3.64,0-6.842-2.406-7.854-5.902l0,0
			c-1.515-5.23,2.409-10.452,7.854-10.452h378.456c3.64,0,6.842,2.406,7.854,5.902l0,0
			C1202.051,1073.824,1198.127,1079.046,1192.682,1079.046z"/>
		<path style="fill:#C65447;" d="M1365.721,1153.676H832.393c-3.64,0-6.842-2.406-7.854-5.902l0,0
			c-1.515-5.23,2.41-10.452,7.854-10.452h533.327c3.64,0,6.842,2.405,7.854,5.902l0,0
			C1375.09,1148.454,1371.166,1153.676,1365.721,1153.676z"/>
		<path style="fill:#A8D29F;" d="M1079.091,935.954H765.089c-3.64,0-6.842-2.406-7.854-5.903l0,0
			c-1.515-5.23,2.41-10.452,7.854-10.452h314.002c3.64,0,6.842,2.406,7.854,5.902l0,0
			C1088.461,930.732,1084.537,935.954,1079.091,935.954z"/>
		<g>
			<path style="fill:#233862;" d="M1965.479,1715.984c0,0,0-17.158,2.445-22.863c2.446-5.705,11.412-28.934,11.412-28.934h35.047
				c0,0,6.521,21.191,6.929,28.119s0,23.678,0,23.678H1965.479z"/>
			<path style="fill:#233862;" d="M2188.009,1715.984c0,0,0-17.158-2.445-22.863c-2.446-5.705-11.411-28.934-11.411-28.934h-35.047
				c0,0-6.521,21.191-6.93,28.119c-0.406,6.928,0,23.678,0,23.678H2188.009z"/>
			<path style="fill:#FFB27D;" d="M2047.598,752.938c0,0-1.234,38.206-6.126,55.324l-38.703,26.998l145.693,21.803l-34.746-48.006
				c0,0-10.491-51.228-4.987-70.178C2114.229,719.93,2047.598,752.938,2047.598,752.938z"/>
			<path style="fill:#ED985F;" d="M2047.386,758.216c0-0.012,11.521,27.733,33.222,27.122c21.7-0.61,26.641-25.15,26.641-25.15
				L2047.386,758.216z"/>
			<path style="fill:#2C3A64;" d="M2034.434,735.759c0,0-7.01-34.984-11.9-45.58c-4.89-10.598-8.967-57.871,45.237-60.316
				c0,0,20.783,2.446,32.195-4.483c0,0,0,6.929-2.853,9.375c0,0,18.746-4.483,33.418,11.817c14.67,16.303-9.779,73.358-8.558,86.806
				L2034.434,735.759z"/>
			<path style="fill:#FFB27D;" d="M2078.121,774.621c-15.723-0.277-44.666-21.215-44.666-47.144v-40.459
				c0-9.469,6.602-17.215,14.672-17.215h59.989c8.068,0,14.671,7.746,14.671,17.215v38.17
				C2122.787,752.376,2096.154,774.939,2078.121,774.621z"/>
			<path style="fill:#2C3A64;" d="M2033.455,708.621c0,0,0.082-24.313,19.338-28.051c19.257-3.738,62.354,11.851,68.467-5.878
				c6.112-17.728-83.304-17.421-87.805-6.113C2028.953,679.888,2033.455,708.621,2033.455,708.621z"/>
			<path style="fill:#B64C41;" d="M1969.871,1121.774c0,0,6.134,187.249-3.037,294.088c-9.167,106.841,0.067,255.526,0.067,255.526
				s29.324,16.169,61.112,0c0,0,34.861-206.403,34.641-255.526c-0.234-52.313,37.944-285.925,37.944-285.925L1969.871,1121.774z"/>
			<path style="fill:#B64C41;" d="M2186.742,1671.383c0,0-29.318,16.176-61.105,0c0,0-34.857-206.4-34.637-255.523
				c0.099-22.092-6.65-76.536-14.488-132.041c-10.723-75.937-23.462-153.878-23.462-153.878l135.796-8.483
				c0,0-11.199,187.572-2.03,294.402C2195.984,1522.703,2186.742,1671.383,2186.742,1671.383z"/>
			<path style="fill:#739AF0;" d="M2187.219,1152.927c0,0-57.891,11.209-110.707,11.209c-23.033,0-48.062-2.528-67.988-5.194
				c-22.03-2.922-37.828-6.015-37.828-6.015s-11.737,1.025-4.806-56.841c5.271-44.035,3.62-83.796,2.446-124.704
				c-0.135-4.547-0.037-9.928,0.244-15.918c2.251-47.693,16.677-133.557,27.668-138.165c0,0,16.347-6.078,45.224-9.035
				c0,0.561,16.763,25.064,36.655,27.813c12.359-4.89,22.066-9.058,35.589-27.019c17.128,1.992,35.81,5.39,55.788,10.757
				c0,0,2.078,9.098,9.927,166.91C2182.548,1049.237,2203.884,1153.135,2187.219,1152.927z"/>
			<path style="fill:#AA413E;" d="M2091,1415.859c0.099-22.092-6.65-76.536-14.488-132.041
				c8.131-33.158,27.938-65.068,27.938-65.068C2129.512,1289.051,2091,1415.859,2091,1415.859z"/>
			<path style="fill:#A8D29F;" d="M1914.835,1005.15c-1.382,1.148,3.437,13.08,10.525,28.632
				c14.598,31.948,38.842,79.129,38.842,79.129c-3.507,13.313-7.359,21.542-7.359,21.542c-40.784-32.046-67.083-59.31-83.87-80.215
				c-23.597-29.405-28.438-46.265-28.438-46.265c90.815-184.858,154.729-191.671,154.729-191.671l-7.55,122.167
				C1991.714,938.469,1919.041,1001.653,1914.835,1005.15z"/>
			<path style="fill:#A8D29F;" d="M2203.452,1201.246c-13.536,27.09-64.585,26.112-64.585,26.112
				c-9.373-71.975-11.448-416.449-11.448-416.449c17.269,2.076,40.218,8.263,40.218,8.263
				c16.578,32.06,22.451,92.098,23.891,134.405c0.795,23.692,0.211,41.818-0.662,46.365c-1.294,6.756,0.344,38.95,2.831,75.679
				C2197.557,1132.92,2203.452,1201.246,2203.452,1201.246z"/>
			<path style="fill:#A8D29F;" d="M2028.045,809.966c0,0-3.42,345.411-12.791,417.387c0,0-51.037,0.979-64.579-26.104
				c0,0,20.968-212.572,17.661-229.868c-2.304-12.053,3.675-111.132,25.741-153.706
				C1994.077,817.676,2013.388,811.692,2028.045,809.966z"/>
			<path style="fill:#FFB27D;" d="M1959.366,1115.237c0,0,22.008-20.377,30.973-8.966c8.965,11.412,10.596,29.342,3.667,28.12
				c-6.928-1.225-21.19-7.742-23.229-4.483c-2.037,3.259-11.167,9.493-13.938,4.543
				C1954.068,1129.5,1959.366,1115.237,1959.366,1115.237z"/>
			<path style="fill:#FFB27D;" d="M1964.202,1112.911c-3.507,13.313-7.359,21.542-7.359,21.542
				c-40.784-32.046-67.083-59.31-83.87-80.215c12.654-0.942,31.129-5.466,52.388-20.456
				C1939.958,1065.73,1964.202,1112.911,1964.202,1112.911z"/>
			<path style="fill:#A8D29F;" d="M2314.955,1007.974c0,0-4.84,16.859-28.437,46.265c-16.786,20.905-43.085,48.169-83.87,80.215
				c0,0-3.852-8.229-7.361-21.542c0,0,24.244-47.181,38.843-79.129c7.09-15.552,11.908-27.483,10.526-28.632
				c-3.264-2.714-47.657-41.288-67.463-58.489c-5.747-5.001-9.414-8.192-9.414-8.192l-4.535-120.354
				C2163.244,818.115,2224.143,823.116,2314.955,1007.974z"/>
			<path style="fill:#FFB27D;" d="M2200.121,1115.237c0,0-22.007-20.377-30.973-8.966c-8.966,11.412-10.595,29.342-3.669,28.12
				c6.929-1.225,21.193-7.742,23.23-4.483c2.038,3.259,11.167,9.493,13.938,4.543
				C2205.419,1129.5,2200.121,1115.237,2200.121,1115.237z"/>
			<path style="fill:#FFB27D;" d="M2195.283,1112.911c3.51,13.313,7.36,21.542,7.36,21.542c40.786-32.046,67.085-59.31,83.87-80.215
				c-12.653-0.942-31.127-5.466-52.389-20.456C2219.528,1065.73,2195.283,1112.911,2195.283,1112.911z"/>
			<path style="fill:#82B479;" d="M2244.656,1005.15c-3.264-2.714-47.657-41.288-67.463-58.489c0,0,19.77-14.82,31.996,6.785
				C2221.416,975.049,2244.656,1005.15,2244.656,1005.15z"/>
			<g>
				<g>
					<path style="fill:#B64C41;" d="M2057.752,725.666c-5.743,0-17.236-1.275-19.248-11.259c-0.612-3.022-0.041-5.709,1.646-7.769
						c1.858-2.27,4.924-3.572,8.408-3.572h17.662c3.358,0,5.708,0.965,6.974,2.868c2.134,3.207,0.497,8.018-0.306,9.937
						c-2.749,6.569-6.534,9.636-11.909,9.649C2060.751,725.545,2059.525,725.666,2057.752,725.666z M2048.558,704.227
						c-3.136,0-5.872,1.147-7.509,3.145c-1.459,1.784-1.945,4.136-1.408,6.805c1.032,5.121,4.88,8.395,11.438,9.728
						c4.99,1.016,9.749,0.462,9.798,0.458l0.069-0.004c4.865,0,8.317-2.839,10.87-8.935c0.57-1.364,2.283-6.029,0.409-8.845
						c-1.039-1.56-3.06-2.352-6.006-2.352H2048.558z"/>
				</g>
				<g>
					<path style="fill:#B64C41;" d="M2098.489,725.666c-1.773,0-2.998-0.121-3.226-0.146c-5.375-0.013-9.158-3.08-11.907-9.649
						c-0.805-1.919-2.441-6.73-0.309-9.937c1.27-1.903,3.616-2.868,6.974-2.868h17.663c3.485,0,6.55,1.302,8.407,3.572
						c1.688,2.06,2.258,4.747,1.646,7.77C2115.729,724.39,2104.233,725.666,2098.489,725.666z M2090.021,704.227
						c-2.945,0-4.966,0.793-6.005,2.352c-1.874,2.816-0.16,7.481,0.409,8.845c2.553,6.095,6.006,8.935,10.87,8.935l0.069,0.004
						c0.049,0.004,4.805,0.557,9.798-0.458c6.559-1.333,10.406-4.607,11.437-9.727c0.538-2.67,0.053-5.022-1.406-6.806
						c-1.637-1.999-4.374-3.145-7.509-3.145H2090.021z"/>
				</g>
				<g>
					<path style="fill:#B64C41;" d="M2071.795,711.231c-0.263,0-0.515-0.152-0.632-0.405c-0.159-0.35-0.006-0.762,0.343-0.921
						c0.293-0.136,7.216-3.234,13.356,0.017c0.337,0.179,0.468,0.599,0.287,0.94c-0.178,0.339-0.599,0.466-0.938,0.287
						c-5.545-2.934-12.061-0.011-12.127,0.019C2071.99,711.211,2071.893,711.231,2071.795,711.231z"/>
				</g>
			</g>
			<path style="fill:#82B479;" d="M2193.696,1075.621c-28.929-81.548-16.5-128.959-16.5-128.959l14.331,6.915
				c0.795,23.692,1.969,42.402,1.988,47.033C2193.569,1013.242,2193.516,1035.676,2193.696,1075.621z"/>
		</g>
		<g>
			<path style="fill:#2C3A64;" d="M2462.854,774.864c0,0-42.373-2.124-43.565-26.575c-1.19-24.451-36.187-42.284-26.052-61.914
				c12.432-24.076,1.094-47.218,16.786-63.405c17.29-17.835,39.138-8.148,50.662-18.541c11.524-10.393,32.604-19.969,53.388-7.133
				c20.784,12.837,36.649,5.928,50.312,18.29c15.094,13.661,9.373,30.854,21.821,40.191c11.41,8.559,6.758,31.942-2.853,50.942
				c-6.929,13.696,9.039,26.53-18.371,42.27c-11.409,6.549-8.933,23.033-43.574,25.874
				C2505.805,776.145,2471.948,768.837,2462.854,774.864z"/>
			<path style="fill:#233862;" d="M2382,1716.225c0,0,0-17.158,2.443-22.864c2.446-5.704,11.411-28.934,11.411-28.934h35.05
				c0,0,6.519,21.191,6.927,28.119c0.408,6.929,0,23.679,0,23.679H2382z"/>
			<path style="fill:#233862;" d="M2604.528,1716.225c0,0,0-17.158-2.444-22.864c-2.445-5.704-11.412-28.934-11.412-28.934h-35.048
				c0,0-6.521,21.191-6.927,28.119c-0.408,6.929,0,23.679,0,23.679H2604.528z"/>
			<path style="fill:#B56F40;" d="M2464.117,753.178c0,0-1.234,38.206-6.125,55.324l-38.704,26.998l145.693,21.803l-34.746-48.006
				c0,0-10.489-51.228-4.989-70.178C2530.75,720.169,2464.117,753.178,2464.117,753.178z"/>
			<path style="fill:#99592E;" d="M2463.905,758.456c0-0.012,11.521,27.732,33.222,27.122c21.702-0.611,26.642-25.15,26.642-25.15
				L2463.905,758.456z"/>
			<path style="fill:#B56F40;" d="M2494.641,774.861c-15.725-0.277-44.666-21.215-44.666-47.144v-40.46
				c0-9.469,6.603-17.215,14.672-17.215h59.989c8.069,0,14.671,7.747,14.671,17.215v38.17
				C2539.307,752.616,2512.676,775.179,2494.641,774.861z"/>
			<path style="fill:#EE9849;" d="M2386.393,1122.015c0,0,6.132,187.249-3.037,294.088c-9.169,106.84,0.066,255.525,0.066,255.525
				s29.325,16.17,61.112,0c0,0,34.861-206.403,34.642-255.525c-0.236-52.313,37.942-285.925,37.942-285.925L2386.393,1122.015z"/>
			<path style="fill:#EE9849;" d="M2603.262,1671.622c0,0-29.318,16.177-61.105,0c0,0-34.857-206.4-34.636-255.522
				c0.097-22.093-6.652-76.537-14.489-132.042c-10.721-75.936-23.461-153.877-23.461-153.877l135.793-8.484
				c0,0-11.197,187.573-2.028,294.403C2612.504,1522.942,2603.262,1671.622,2603.262,1671.622z"/>
			<path style="fill:#B64C41;" d="M2579.764,818.355l0.002,0.082c-17.628-4.437-34.203-7.357-49.53-9.14
				c-13.522,17.96-23.229,22.129-35.591,27.019c-19.891-2.75-36.652-27.252-36.652-27.813c-21.672,2.22-36.283,6.196-42.229,8.043
				c-1.18,0.14-64.741,8.536-154.709,191.668c0,0,4.843,16.86,28.438,46.265c16.787,20.906,43.084,48.17,83.871,80.216
				c0,0,3.852-8.229,7.359-21.545c0,0-24.243-47.179-38.842-79.126c-7.092-15.552-11.907-27.484-10.525-28.633
				c2.626-2.183,31.957-27.646,53.611-46.461c-0.174,4.703-0.221,8.978-0.11,12.693c1.173,40.909,2.823,80.668-2.446,124.705
				c-6.933,57.866,4.806,56.84,4.806,56.84s15.795,3.093,37.827,6.016c19.929,2.665,44.956,5.194,67.988,5.194
				c52.818,0,110.706-11.21,110.706-11.21c16.665,0.209-4.67-103.689-7.786-166.201c-0.723-14.518-1.396-27.767-2.023-39.877
				c19.91,17.29,63.995,55.597,67.248,58.302c1.382,1.148-3.435,13.081-10.527,28.633c-14.596,31.947-38.842,79.126-38.842,79.126
				c3.509,13.315,7.361,21.545,7.361,21.545c40.785-32.046,67.084-59.31,83.87-80.216c23.597-29.404,28.438-46.265,28.438-46.265
				C2640.66,823.356,2579.764,818.355,2579.764,818.355z"/>
			<path style="fill:#AA413E;" d="M2425.043,1159.182c-22.032-2.923-37.827-6.016-37.827-6.016s-11.737,1.026-4.806-56.84
				c5.27-44.036,3.619-83.796,2.446-124.705c-0.136-4.547-0.036-9.928,0.243-15.918c3.375,5.404,40.982,66.144,51.105,111.281
				C2443.576,1099.908,2432.465,1138.69,2425.043,1159.182z"/>
			<path style="fill:#E58638;" d="M2507.521,1416.1c0.097-22.093-6.652-76.537-14.489-132.042
				c8.131-33.157,27.938-65.067,27.938-65.067C2546.031,1289.29,2507.521,1416.1,2507.521,1416.1z"/>
			<path style="fill:#B56F40;" d="M2375.887,1115.478c0,0,22.005-20.377,30.972-8.967c8.966,11.412,10.596,29.342,3.669,28.121
				c-6.93-1.225-21.193-7.742-23.229-4.483c-2.038,3.259-11.167,9.492-13.938,4.543
				C2370.588,1129.74,2375.887,1115.478,2375.887,1115.478z"/>
			<path style="fill:#B56F40;" d="M2380.723,1113.151c-3.508,13.313-7.359,21.542-7.359,21.542
				c-40.787-32.046-67.084-59.31-83.871-80.216c12.655-0.941,31.127-5.466,52.389-20.455
				C2356.479,1065.97,2380.723,1113.151,2380.723,1113.151z"/>
			<path style="fill:#B56F40;" d="M2616.641,1115.478c0,0-22.007-20.377-30.972-8.967c-8.967,11.412-10.598,29.342-3.669,28.121
				c6.928-1.225,21.191-7.742,23.229-4.483s11.167,9.492,13.938,4.543C2621.938,1129.74,2616.641,1115.478,2616.641,1115.478z"/>
			<path style="fill:#B56F40;" d="M2611.803,1113.151c3.51,13.313,7.36,21.542,7.36,21.542
				c40.786-32.046,67.085-59.31,83.872-80.216c-12.655-0.941-31.129-5.466-52.389-20.455
				C2636.047,1065.97,2611.803,1113.151,2611.803,1113.151z"/>
			<path style="fill:#AA413E;" d="M2661.176,1005.39c-3.264-2.714-47.656-41.287-67.463-58.488c0,0,19.771-14.819,31.996,6.785
				C2637.936,975.289,2661.176,1005.39,2661.176,1005.39z"/>
			<path style="fill:#AA413E;" d="M2731.476,1008.213c0,0-4.841,16.86-28.438,46.265
				C2675.727,1054.099,2731.476,1008.213,2731.476,1008.213z"/>
			<path style="fill:#2C3A64;" d="M2449.975,703.664c0,0,10.914-33.315,46.676-28.119c35.761,5.196,38.856,12.836,42.656,21.702
				c3.803,8.863,11.138-32.401,11.138-32.401l-42.179-12.53c0,0-46.857,9.363-54.713,14.365
				c-14.925,9.504-14.925,16.393-14.925,16.393L2449.975,703.664z"/>
			<g>
				<path style="fill:#2C3A64;" d="M2472.762,728.518c-6.17,0-18.523-1.371-20.686-12.1c-0.654-3.246-0.042-6.133,1.77-8.349
					c1.998-2.438,5.291-3.837,9.035-3.837h18.98c3.61,0,6.132,1.036,7.493,3.084c2.293,3.445,0.533,8.614-0.329,10.676
					c-2.953,7.06-7.02,10.354-12.799,10.367C2475.983,728.387,2474.667,728.518,2472.762,728.518z M2462.881,705.479
					c-3.368,0-6.311,1.231-8.068,3.381c-1.568,1.914-2.09,4.444-1.513,7.311c1.11,5.503,5.243,9.021,12.289,10.453
					c5.366,1.093,10.478,0.497,10.532,0.493l0.072-0.004c5.229,0,8.938-3.052,11.682-9.602c0.612-1.464,2.455-6.478,0.438-9.504
					c-1.114-1.678-3.286-2.527-6.452-2.527H2462.881z"/>
			</g>
			<g>
				<path style="fill:#2C3A64;" d="M2516.538,728.518c-1.906,0-3.223-0.131-3.466-0.159c-5.776-0.013-9.843-3.307-12.799-10.367
					c-0.862-2.062-2.62-7.23-0.329-10.676c1.362-2.048,3.885-3.084,7.494-3.084h18.979c3.746,0,7.037,1.399,9.035,3.837
					c1.812,2.215,2.424,5.103,1.77,8.35C2535.061,727.144,2522.709,728.518,2516.538,728.518z M2507.438,705.479
					c-3.167,0-5.339,0.85-6.453,2.527c-2.015,3.025-0.172,8.04,0.44,9.504c2.742,6.55,6.451,9.602,11.68,9.602l0.074,0.004
					c0.053,0.006,5.164,0.599,10.529-0.493c7.047-1.433,11.182-4.95,12.291-10.452c0.578-2.868,0.055-5.398-1.514-7.312
					c-1.758-2.15-4.698-3.381-8.068-3.381H2507.438z"/>
			</g>
			<g>
				<path style="fill:#2C3A64;" d="M2487.852,713.006c-0.282,0-0.553-0.162-0.681-0.436c-0.169-0.377-0.004-0.819,0.37-0.991
					c0.313-0.143,7.754-3.473,14.352,0.021c0.363,0.192,0.504,0.644,0.31,1.01c-0.19,0.364-0.646,0.501-1.011,0.311
					c-5.955-3.154-12.959-0.013-13.029,0.019C2488.062,712.984,2487.957,713.006,2487.852,713.006z"/>
			</g>
		</g>
		<path style="fill:#2C3A64;" d="M1595.361,610.699c-2.878-3.129-9.308-6.675-17.773-9.566c14.87-6.69,27.523-14.573,18.773-19.392
			c-3.782-2.084-8.301-1.791-13.061-0.06c7.323-7.407,10.848-13.784,3.709-15.456c-10.85-2.538-22.145,11.442-30.027,24.332
			c5.114-11.055,7.75-22.01-1.784-22.173c-10.989-0.188-13.135,14.397-12.944,27.004c-0.911,0.005-1.821,0.022-2.734,0.053
			c-3.098-13.946-9.103-31.292-19.344-26.659c-5.154,2.332-4.971,7.335-2.27,13.119c-4.843-3.715-9.634-5-13.439-1.066
			c-5.799,6,1.332,13.115,10.756,19.066c-6.675,2.423-12.984,5.932-18.556,10.798c-31.998,27.94,2.89,91.216,2.89,91.216
			l91.351-2.341C1619.53,654.008,1605.726,621.965,1595.361,610.699z"/>
		<path style="fill:#233862;" d="M1430.045,1712.755c0,0,0-17.546,2.501-23.381s11.669-29.589,11.669-29.589h35.839
			c0,0,6.667,21.671,7.084,28.756c0.418,7.084,0,24.214,0,24.214H1430.045z"/>
		<path style="fill:#233862;" d="M1657.603,1712.755c0,0,0-17.546-2.501-23.381c-2.5-5.835-11.669-29.589-11.669-29.589h-35.839
			c0,0-6.669,21.671-7.086,28.756c-0.416,7.084,0,24.214,0,24.214H1657.603z"/>
		<path style="fill:#B56F40;" d="M1514.019,727.952c0,0-1.263,39.07-6.264,56.573l-39.577,27.609l148.983,22.295l-35.53-49.092
			c0,0-10.728-52.384-5.101-71.762C1582.156,694.196,1514.019,727.952,1514.019,727.952z"/>
		<path style="fill:#99592E;" d="M1513.801,733.347c0.001-0.011,11.783,28.361,33.974,27.736
			c22.192-0.625,27.241-25.72,27.241-25.72L1513.801,733.347z"/>
		<path style="fill:#B56F40;" d="M1545.231,750.125c-16.08-0.285-45.675-21.694-45.675-48.209V660.54
			c0-9.681,6.752-17.602,15.002-17.602h61.346c8.253,0,15.003,7.921,15.003,17.602v39.035
			C1590.907,727.377,1563.673,750.45,1545.231,750.125z"/>
		<path style="fill:#2B478B;" d="M1434.536,1105.12c0,0,6.272,191.479-3.105,300.732c-9.375,109.252,0.069,261.298,0.069,261.298
			s29.986,16.534,62.492,0c0,0,35.649-211.066,35.423-261.298c-0.239-53.496,38.803-292.386,38.803-292.386L1434.536,1105.12z"/>
		<path style="fill:#2B478B;" d="M1656.308,1667.146c0,0-29.982,16.54-62.487,0c0,0-35.645-211.063-35.419-261.298
			c0.101-22.591-6.801-78.263-14.815-135.023c-10.963-77.65-23.991-157.353-23.991-157.353l138.862-8.678
			c0,0-11.453,191.81-2.075,301.054C1665.758,1515.105,1656.308,1667.146,1656.308,1667.146z"/>
		<path style="fill:#74ACBE;" d="M1632.277,794.601l0.003,0.085c-18.026-4.538-34.978-7.525-50.649-9.348
			c-13.827,18.366-23.755,22.63-36.395,27.63c-20.341-2.813-37.481-27.868-37.481-28.442c-29.53,3.026-46.246,9.24-46.246,9.24
			c-11.239,4.712-25.992,92.516-28.292,141.288c-0.288,6.126-0.387,11.628-0.25,16.278c1.2,41.832,2.889,82.489-2.5,127.522
			c-7.089,59.173,4.913,58.122,4.913,58.122s16.153,3.164,38.682,6.152c20.378,2.725,45.97,5.313,69.524,5.313
			c54.011,0,113.208-11.465,113.208-11.465c17.041,0.214-4.776-106.032-7.964-169.956c-0.738-14.845-1.427-28.398-2.069-40.782
			c-13.764,59.962,28.964,101.962,30.334,106.064c0,0,38.585-28.21,34.593-15.423c-15.332,49.097,2.473,59.637,2.473,59.637
			c3.588,13.616,65.015,44.941,65.015,44.941c16.981-13.342,30.823-12.112,22.567-20.688
			c-32.044-33.288-48.456-42.172-56.376-60.803c-0.151-0.354,13.935-4.517,13.688-4.808c-48.37-56.996-51.217-74.484-56.678-105.646
			C1683.089,819.441,1632.277,794.601,1632.277,794.601z"/>
		<path style="fill:#578E9B;" d="M1474.062,1143.127c-22.529-2.988-38.682-6.152-38.682-6.152s-12.002,1.051-4.913-58.122
			c5.389-45.033,3.7-85.69,2.5-127.522c-0.136-4.65-0.037-10.152,0.25-16.278c3.451,5.525,41.908,67.636,52.259,113.794
			C1493.015,1082.516,1481.649,1122.173,1474.062,1143.127z"/>
		<path style="fill:#233862;" d="M1558.401,1405.848c0.101-22.591-6.801-78.263-14.815-135.023
			c8.314-33.905,28.568-66.536,28.568-66.536C1597.782,1276.176,1558.401,1405.848,1558.401,1405.848z"/>
		<path style="fill:#B56F40;" d="M1669.988,1098.435c0,0-22.505-20.837-31.673-9.167c-9.169,11.667-10.836,30.005-3.75,28.754
			c7.084-1.25,21.67-7.918,23.754-4.584s11.42,9.707,14.252,4.645C1675.405,1113.021,1669.988,1098.435,1669.988,1098.435z"/>
		<path style="fill:#B56F40;" d="M1669.988,1098.435c3.588,13.616,2.58,19.65,2.58,19.65c41.707-32.77,68.599-60.648,85.765-82.027
			c-12.94-0.964-24.904-3.852-46.646-19.179C1693.736,1071.637,1669.988,1098.435,1669.988,1098.435z"/>
		<path style="fill:#2C3A64;" d="M1499.557,677.317c0,0,11.159-34.068,47.729-28.754c36.569,5.314,39.733,13.127,43.621,22.191
			c3.887,9.064,11.389-33.131,11.389-33.131l-43.134-12.815c0,0-47.806,9.753-55.947,14.69c-12.744,7.73-8.765,11.565-8.765,11.565
			L1499.557,677.317z"/>
		<path style="fill:#74ACBE;" d="M1548.303,1031.877c-13.978,2.104-85.6,18.726-136.646,25.168
			c-28.774,3.63-51.011,4.039-52.728-3.209c-4.749-20.108,11.405-148.198,37.079-199.748c25.672-51.564,73.255-62.698,73.255-62.698
			l13.536,81.628l-68.81,137.045l16.755,0.3l114.987,2.043L1548.303,1031.877z"/>
		<path style="fill:#B56F40;" d="M1548.303,1031.877c-13.978,2.104-23.033,5.807-72.367,14.488
			c-4.809-17.523-2.152-27.694,8.642-35.047l61.152,1.087L1548.303,1031.877z"/>
		<path style="fill:#2C3A64;" d="M1585.315,681.042c-1.938-2.366-5.132-3.724-8.764-3.724h-18.415c-3.502,0-5.949,1.008-7.27,2.993
			c-0.615,0.923-0.922,1.975-1.037,3.054c-3.09-0.77-6.098-0.379-8.188,0.144c-0.102-1.13-0.41-2.234-1.051-3.199
			c-1.32-1.985-3.769-2.993-7.27-2.993h-18.416c-3.631,0-6.826,1.358-8.766,3.724c-1.758,2.148-2.352,4.949-1.715,8.102
			c2.097,10.407,14.081,11.738,20.068,11.738c1.847,0,3.124-0.128,3.363-0.153c5.604-0.013,9.55-3.21,12.415-10.059
			c0.489-1.168,1.269-3.365,1.396-5.656c1.989-0.531,5.048-1.01,8.116-0.167c0.096,2.35,0.901,4.626,1.401,5.822
			c2.867,6.849,6.813,10.046,12.416,10.059c0.238,0.026,1.514,0.153,3.363,0.153c5.986,0,17.973-1.331,20.068-11.738
			C1587.669,685.991,1587.075,683.19,1585.315,681.042z M1539.155,690.202c-2.659,6.355-6.26,9.315-11.332,9.315l-0.072,0.004
			c-0.051,0.006-5.011,0.583-10.216-0.478c-6.836-1.391-10.848-4.802-11.924-10.141c-0.562-2.784-0.054-5.235,1.468-7.095
			c1.706-2.084,4.56-3.278,7.827-3.278h18.416c3.071,0,5.178,0.825,6.26,2.452c0.56,0.839,0.807,1.837,0.868,2.867
			c-0.938,0.297-1.536,0.562-1.617,0.599c-0.364,0.166-0.524,0.597-0.358,0.96c0.123,0.266,0.386,0.423,0.66,0.423
			c0.101,0,0.202-0.02,0.301-0.066c0.015-0.007,0.381-0.168,0.985-0.375C1540.223,687.45,1539.496,689.39,1539.155,690.202z
			 M1585.847,688.904c-1.076,5.337-5.087,8.748-11.924,10.139c-5.206,1.06-10.165,0.484-10.216,0.478l-0.072-0.004
			c-5.071,0-8.671-2.96-11.332-9.315c-0.346-0.83-1.094-2.832-1.273-4.938c0.352,0.141,0.701,0.3,1.047,0.482
			c0.355,0.188,0.795,0.054,0.979-0.301c0.188-0.353,0.053-0.792-0.299-0.979c-0.575-0.305-1.157-0.539-1.74-0.744
			c0.074-0.984,0.322-1.936,0.859-2.74c1.083-1.627,3.188-2.452,6.261-2.452h18.415c3.269,0,6.121,1.194,7.827,3.278
			C1585.899,683.667,1586.408,686.119,1585.847,688.904z"/>
		<path style="fill:#FFF0E6;" d="M1530.52,723.378c0,0,20.232-2.204,29.647,0c0,0-5.009,8.213-13.223,8.213
			C1538.732,731.591,1532.522,728.585,1530.52,723.378z"/>
		<g>
			<path style="fill:#EE9849;" d="M1610.656,1099.198c-30.779-12.912-49.669-36.524-54.628-68.285
				c-4.004-25.644,1.97-50.816,5.887-63.539c1.547-5.027,5.169-9.189,9.938-11.42c4.779-2.236,10.313-2.347,15.181-0.305
				l52.06,21.84l-7.448,17.756l-51.509-21.608c-7.585,25.003-18.457,84.133,37.97,107.805L1610.656,1099.198z"/>
			<path style="fill:#EE9849;" d="M1697.293,1135.543l7.449-17.756c56.425,23.671,90.996-25.519,103.52-48.449l-51.509-21.608
				l7.448-17.756l52.061,21.84c4.867,2.042,8.665,6.066,10.419,11.043c1.751,4.965,1.318,10.466-1.184,15.093
				c-6.333,11.709-20.108,33.609-41.208,48.721C1758.154,1145.387,1728.072,1148.455,1697.293,1135.543z"/>
			<path style="fill:#EE9849;" d="M1738.688,945.026c-2.445,5.83-9.154,8.573-14.983,6.127c-5.829-2.445-8.572-9.153-6.127-14.983
				c2.445-5.829,9.153-8.572,14.983-6.127C1738.39,932.489,1741.133,939.197,1738.688,945.026z"/>
			<path style="fill:#E58638;" d="M1732.56,930.044c-0.536-0.225-1.082-0.392-1.63-0.531c1.074,1.927,1.291,4.307,0.371,6.499
				c-1.588,3.787-5.945,5.568-9.732,3.98c-1.847-0.775-3.211-2.21-3.946-3.915c-0.014,0.033-0.031,0.062-0.045,0.094
				c-2.445,5.83,0.298,12.538,6.127,14.983c5.829,2.445,12.538-0.297,14.983-6.127
				C1741.133,939.197,1738.39,932.489,1732.56,930.044z"/>
			<path style="fill:#EE9849;" d="M1690.763,1252.882c0.997-3.2-0.815-6.618-3.906-7.915c-7.663-3.215-14.432-8.261-19.606-14.762
				c-14.465-18.171-35.211-55.785,14.463-80.665c101.53-50.854,95.886-142.136,95.886-142.136l-64.838-27.2l-66.952-28.087
				c0,0-66.966,60.821-32.106,168.892c17.056,52.874-24.316,64.429-47.416,66.841c-8.265,0.863-16.607-0.431-24.271-3.645
				c-3.091-1.297-6.8-0.195-8.384,2.759c-1.817,3.39-0.297,7.52,3.164,8.972l72.675,30.487l72.674,30.487
				C1685.605,1258.362,1689.618,1256.554,1690.763,1252.882z"/>
			<path style="fill:#EE9849;" d="M1777.599,1007.404l-131.79-55.287c-4.25-1.783-6.249-6.673-4.467-10.922l0,0
				c1.783-4.25,6.673-6.249,10.922-4.466l131.79,55.287c4.25,1.783,6.249,6.673,4.467,10.922l0,0
				C1786.738,1007.188,1781.848,1009.187,1777.599,1007.404z"/>
			<path style="fill:#E58638;" d="M1784.646,992.3c-0.094,0.726-0.277,1.452-0.574,2.159c-1.782,4.25-6.672,6.25-10.922,4.467
				l-131.79-55.288c-0.204-0.085-0.398-0.185-0.593-0.284c-0.471,3.633,1.499,7.277,5.041,8.763l131.79,55.287
				c4.249,1.783,9.14-0.217,10.922-4.467C1790.218,998.893,1788.482,994.273,1784.646,992.3z"/>
			<path style="fill:#EE9849;" d="M1774.924,988.185l-111.414-46.739c-4.857-2.038-7.351-7.135-5.568-11.385l0,0
				c1.783-4.249,7.166-6.042,12.024-4.004l111.414,46.739c4.857,2.038,7.351,7.135,5.567,11.384l0,0
				C1785.165,988.431,1779.782,990.223,1774.924,988.185z"/>
			<path style="fill:#E58638;" d="M1781.575,972.889c-0.095,0.466-0.226,0.929-0.416,1.381c-1.782,4.25-7.166,6.042-12.023,4.004
				l-111.414-46.74c-0.067-0.028-0.13-0.063-0.196-0.092c-0.799,3.919,1.644,8.182,5.984,10.003l111.414,46.739
				c4.858,2.038,10.241,0.245,12.023-4.004C1788.706,979.991,1786.301,974.981,1781.575,972.889z"/>
			<path style="fill:#E58638;" d="M1690.763,1252.882c0.997-3.2-0.815-6.618-3.906-7.915c-7.663-3.215-14.432-8.261-19.606-14.762
				c-14.465-18.171-35.211-55.785,14.463-80.665c101.53-50.854,97.439-141.484,97.439-141.484l-66.392-27.852l-1.135-0.476
				c8.993,32.959,6.536,72.571-9.502,110.801c-30.071,71.684-97.058,112.725-153.354,95.943c-2.293-0.601-4.554-1.346-6.754-2.268
				c-3.091-1.297-6.8-0.195-8.384,2.759c-1.817,3.39-0.297,7.52,3.164,8.972l72.675,30.487l72.674,30.487
				C1685.605,1258.362,1689.618,1256.554,1690.763,1252.882z"/>
		</g>
		<path style="fill:#B56F40;" d="M1532.285,1016.906c0,0,37.829-26.068,50.234-17.016c12.406,9.049,13.394,30.627-38.041,32.412
			L1532.285,1016.906z"/>
		<path style="fill:#B56F40;" d="M1803.516,1100.77c0,0-15.66,12.842-21.963,21.142c-6.304,8.3,9.748,18.636,21.963,3.915
			C1815.731,1111.105,1803.516,1100.77,1803.516,1100.77z"/>
	</g>
</g>
</svg>
