<?xml version="1.0" encoding="utf-8"?>
<!-- Generator: Adobe Illustrator 27.5.0, SVG Export Plug-In . SVG Version: 6.00 Build 0)  -->
<svg version="1.1" xmlns="http://www.w3.org/2000/svg" xmlns:xlink="http://www.w3.org/1999/xlink" x="0px" y="0px"
	 viewBox="0 0 500 500" style="enable-background:new 0 0 500 500;" xml:space="preserve">
<g id="Floor">
	<path style="fill:#F5F5F5;" d="M412.682,252.445c-90.435-52.213-236.581-52.212-326.428,0.001
		c-89.853,52.217-89.377,136.87,1.059,189.083c90.441,52.216,236.587,52.215,326.44-0.002
		C503.599,389.314,503.123,304.661,412.682,252.445z"/>
</g>
<g id="Shadows_1_">
	<path style="fill:#E6E6E6;" d="M227.681,421.282c-15.994-9.234-41.842-9.234-57.732,0c-15.891,9.235-15.807,24.207,0.187,33.441
		c15.995,9.235,41.842,9.235,57.734,0C243.761,445.489,243.677,430.517,227.681,421.282z"/>
	<path style="fill:#E6E6E6;" d="M325.106,427.211c-15.942-9.204-41.705-9.204-57.543,0c-15.839,9.205-15.755,24.127,0.186,33.332
		c15.943,9.205,41.706,9.205,57.545,0C341.133,451.339,341.049,436.416,325.106,427.211z"/>
	<path style="fill:#E6E6E6;" d="M399.115,353.309c-13.992-8.078-36.604-8.078-50.505,0c-13.902,8.079-13.828,21.176,0.164,29.255
		c13.993,8.079,36.604,8.079,50.506,0C413.182,374.485,413.108,361.388,399.115,353.309z"/>
	<path style="fill:#E6E6E6;" d="M347.107,297.261c-14.889-8.596-38.949-8.596-53.741,0c-14.793,8.597-14.714,22.533,0.174,31.129
		c14.889,8.596,38.95,8.596,53.743,0C362.075,319.794,361.996,305.857,347.107,297.261z"/>
	<path style="fill:#E6E6E6;" d="M319.601,221.724c-0.007-2.568-0.91-4.378-2.364-5.248l0.003-0.003l-0.043-0.025
		c-0.018-0.01-0.036-0.021-0.055-0.032l0,0c0,0,0,0,0,0l-8.609-4.989l0.001,0.007c-0.188-0.119-0.386-0.223-0.593-0.309
		c-0.413-0.173-0.863-0.28-1.341-0.316c-0.273-0.021-0.558-0.012-0.85,0.014c-0.091,0.008-0.184,0.025-0.276,0.038
		c-0.208,0.029-0.419,0.067-0.635,0.119c-0.107,0.026-0.215,0.055-0.324,0.087c-0.219,0.064-0.441,0.143-0.666,0.232
		c-0.101,0.04-0.2,0.075-0.303,0.119c-0.326,0.143-0.656,0.304-0.993,0.498L73.921,343.583c-0.004,0.002-0.008,0.005-0.012,0.007
		c0,0,0,0,0,0c-0.298,0.172-0.591,0.362-0.88,0.565c-0.093,0.065-0.182,0.138-0.274,0.207c-0.2,0.148-0.398,0.297-0.593,0.459l0,0
		l0,0c-0.102,0.084-0.2,0.175-0.301,0.263c0,0,0,0,0,0c0,0,0,0,0,0c-0.181,0.159-0.361,0.319-0.537,0.489c0,0,0,0,0,0c0,0,0,0,0,0
		c-0.098,0.094-0.193,0.191-0.289,0.288c-0.175,0.177-0.348,0.357-0.517,0.544c-0.089,0.098-0.176,0.197-0.262,0.297
		c-0.173,0.199-0.341,0.402-0.507,0.611c-0.076,0.096-0.152,0.192-0.227,0.29c0,0,0,0,0,0c0,0,0,0,0,0.001
		c-0.173,0.227-0.34,0.459-0.505,0.695c-0.06,0.086-0.12,0.17-0.178,0.257c-0.18,0.267-0.352,0.54-0.519,0.816
		c-0.037,0.061-0.076,0.121-0.112,0.182c-0.323,0.548-0.617,1.111-0.885,1.683c-0.046,0.099-0.095,0.198-0.14,0.297
		c-0.087,0.194-0.167,0.389-0.247,0.585l0,0c-0.052,0.127-0.104,0.253-0.153,0.381c-0.07,0.182-0.134,0.364-0.198,0.546
		c-0.05,0.145-0.1,0.29-0.146,0.436c0,0,0,0,0,0c0,0,0,0,0,0c-0.054,0.17-0.105,0.339-0.153,0.508c0,0,0,0.001,0,0.001
		c0,0,0,0.001,0,0.001c-0.046,0.162-0.089,0.324-0.129,0.485c0,0,0,0,0,0.001c0,0,0,0,0,0.001c-0.039,0.156-0.078,0.312-0.112,0.468
		c0,0,0,0,0,0v0c-0.04,0.18-0.073,0.359-0.105,0.538c0,0,0,0,0,0c0,0,0,0,0,0.001c-0.025,0.14-0.053,0.28-0.074,0.419c0,0,0,0,0,0
		s0,0,0,0c-0.031,0.206-0.053,0.411-0.074,0.615v0c0,0,0,0,0,0c-0.012,0.112-0.028,0.225-0.036,0.336c0,0,0,0,0,0c0,0,0,0,0,0
		c-0.024,0.315-0.038,0.628-0.037,0.937c0,0,0,0.001,0,0.001v0l0.413,3.934c0.004,1.231,0.214,2.287,0.591,3.149
		c0.189,0.431,0.42,0.813,0.688,1.144c0.268,0.331,0.573,0.612,0.91,0.839l-0.001,0l0,0h0l0.01,0.006
		c0.147,0.099,0.301,0.187,0.461,0.265l8.49,4.945c0,0,0,0,0,0l0,0c0.043,0.026,0.085,0.051,0.129,0.075l0.062,0.036l0,0v-0.007
		c1.484,0.78,3.492,0.633,5.708-0.646l73.095-42.094l37.985,22.807c0.491,0.283,0.991,0.547,1.495,0.797
		c0.165,0.082,0.332,0.154,0.499,0.232c0.343,0.161,0.686,0.32,1.034,0.466c0.198,0.083,0.399,0.159,0.598,0.238
		c0.322,0.126,0.644,0.249,0.97,0.363c0.211,0.074,0.423,0.143,0.636,0.211c0.321,0.103,0.642,0.2,0.966,0.291
		c0.215,0.06,0.429,0.12,0.645,0.174c0.332,0.084,0.664,0.16,0.998,0.231c0.208,0.045,0.415,0.091,0.623,0.131
		c0.365,0.069,0.732,0.126,1.1,0.181c0.177,0.026,0.353,0.058,0.53,0.08c0.544,0.069,1.09,0.125,1.637,0.161
		c0.581,0.038,1.163,0.058,1.745,0.059c0.582,0.001,1.163-0.017,1.744-0.053c1.162-0.073,2.32-0.221,3.466-0.444
		c0.655-0.127,1.305-0.286,1.951-0.462c0.202-0.055,0.401-0.12,0.602-0.179c0.451-0.134,0.898-0.278,1.343-0.436
		c0.222-0.079,0.443-0.161,0.663-0.246c0.441-0.17,0.878-0.354,1.312-0.548c0.194-0.087,0.39-0.169,0.582-0.26
		c0.615-0.293,1.225-0.603,1.822-0.945l29.212-16.715c4.362-2.496,6.133-7.244,5.327-11.586c-0.541-2.918-2.235-5.653-5.132-7.391
		l-16.707-10.021l-7.086-4.25c-0.362-0.217-0.707-0.456-1.033-0.715c-1.63-1.293-2.788-3.075-3.317-5.066
		c-0.212-0.796-0.322-1.626-0.322-2.471v-2.577l89.65-51.627c4.542-2.622,8.221-8.994,8.206-14.213L319.601,221.724z"/>
</g>
<g id="Plants">
	<g>
		<path style="fill:#BA68C8;" d="M433.299,325.922l-4.638-3.806c-0.282-7.311-0.569-15.013,0.646-22.228
			c1.215-7.215,4.049-14.354,9.21-19.539c2.162-2.172,4.844-4.025,7.889-4.371c3.045-0.347,6.443,1.187,7.492,4.067
			c1.098,3.013-0.559,6.285-2.322,8.963c-3.759,5.711-8.244,10.921-11.927,16.681C435.966,311.449,433.386,319.085,433.299,325.922z
			"/>
		<path style="fill:#BA68C8;" d="M433.299,326.923l4.638,3.806c3.428-7.235,8.16-13.941,14.684-18.581
			c2.233-1.589,4.63-3.003,6.502-5.005c1.872-2.002,3.179-4.774,2.635-7.461c-0.698-3.447-4.358-5.725-7.875-5.745
			c-3.517-0.02-6.815,1.765-9.54,3.989C435.977,304.755,431.191,316.331,433.299,326.923z"/>
		<path style="opacity:0.3;" d="M433.299,326.923l4.638,3.806c3.428-7.235,8.16-13.941,14.684-18.581
			c2.233-1.589,4.63-3.003,6.502-5.005c1.872-2.002,3.179-4.774,2.635-7.461c-0.698-3.447-4.358-5.725-7.875-5.745
			c-3.517-0.02-6.815,1.765-9.54,3.989C435.977,304.755,431.191,316.331,433.299,326.923z"/>
		<g>
			<path style="fill:#FFFFFF;" d="M430.685,324.178c-0.002,0-0.004,0-0.007,0c-0.222-0.004-0.399-0.187-0.394-0.409
				c0.189-10.841,2.623-30.867,16.797-43.176c0.168-0.145,0.421-0.127,0.567,0.04c0.145,0.167,0.128,0.422-0.04,0.567
				c-5.984,5.196-16.085,17.637-16.521,42.584C431.082,324.003,430.904,324.178,430.685,324.178z"/>
		</g>
		<g>
			<path style="fill:#FFFFFF;" d="M435.544,329.168c-0.013,0-0.026-0.001-0.039-0.002c-0.221-0.021-0.383-0.218-0.361-0.438
				c0.948-9.747,5.202-23.169,20.075-31.765c0.187-0.111,0.436-0.047,0.548,0.146c0.112,0.191,0.046,0.437-0.147,0.548
				c-14.577,8.425-18.747,21.589-19.677,31.148C435.924,329.013,435.749,329.168,435.544,329.168z"/>
		</g>
	</g>
	<g>
		<path style="fill:#BA68C8;" d="M49.487,308.868c-2.711-2.279-5.717-4.206-8.273-6.656c-1.744-1.672-3.35-3.821-3.23-6.234
			c0.111-2.239,1.793-4.219,3.875-5.049c2.082-0.83,4.472-0.629,6.568,0.165c2.096,0.794,3.937,2.14,5.646,3.59
			c9.342,7.927,15.428,19.583,16.591,31.779c0.133,1.398,0.188,2.886-0.479,4.122c-0.715,1.326-2.262,2.153-3.761,2.011
			c-3.86-0.364-4.346-5.386-5.513-8.168c-1.599-3.811-3.775-7.38-6.429-10.549C52.966,312.069,51.295,310.388,49.487,308.868z"/>
		<g>
			<path style="fill:#EBEBEB;" d="M67.105,328.649c-0.147,0-0.28-0.1-0.316-0.248c-1.408-5.805-7.245-25.414-23.25-34.041
				c-0.158-0.085-0.217-0.283-0.132-0.441s0.282-0.217,0.441-0.132c16.241,8.755,22.149,28.589,23.574,34.46
				c0.042,0.175-0.065,0.35-0.24,0.393C67.156,328.646,67.13,328.649,67.105,328.649z"/>
		</g>
		<g>
			<path style="fill:#BA68C8;" d="M70.033,336.766c0.035,2.38-1.378,5.613-3.251,7.082c-1.856,1.456-4.196,2.209-6.544,2.465
				c-2.39,0.261-4.806,0.036-7.19-0.277c-1.177-0.154-2.504-0.414-2.89-1.759c-0.204-0.709-0.018-1.473,0.402-2.08
				c0.176-0.255,0.375-0.509,0.592-0.754c0.442-0.499,0.035-1.277-0.626-1.194c-0.666,0.084-1.334,0.14-2.005,0.143
				c-1.551,0.009-3.135-0.271-4.476-1.05c-1.007-0.585-1.852-1.44-2.452-2.438c-0.514-0.854-0.834-1.99-0.272-2.814
				c0.322-0.473,0.867-0.735,1.392-0.962c0.469-0.202,0.942-0.389,1.419-0.562c0.634-0.231,0.567-1.144-0.094-1.279l-2.247-0.456
				c-0.624-0.127-1.276-0.266-1.769-0.669c-0.787-0.642-0.961-1.767-0.963-2.783c-0.002-1.35,0.2-2.693,0.252-4.042
				c0.052-1.349-0.055-2.741-0.637-3.96c3.801-1.156,7.822-1.756,11.788-1.514c1.184,0.072,2.397,0.217,3.449,0.766
				c1.499,0.781,2.143,2.27,2.337,3.982c0.037,0.325,0.5,0.359,0.597,0.047l0.845-2.709c0.255-0.816,1.104-1.272,1.934-1.066
				c1.251,0.312,2.443,0.972,3.505,1.79c1.145,0.882,1.9,2.192,2.063,3.629c0.222,1.942,0.269,3.945,0.155,5.894
				c-0.03,0.511,0.587,0.769,0.936,0.396l0.054-0.058c0.311-0.334,0.725-0.578,1.18-0.61c1.202-0.085,1.736,1.044,2.013,2.041
				C69.929,333.408,70.01,335.186,70.033,336.766z"/>
			<path style="opacity:0.2;" d="M70.033,336.766c0.035,2.38-1.378,5.613-3.251,7.082c-1.856,1.456-4.196,2.209-6.544,2.465
				c-2.39,0.261-4.806,0.036-7.19-0.277c-1.177-0.154-2.504-0.414-2.89-1.759c-0.204-0.709-0.018-1.473,0.402-2.08
				c0.176-0.255,0.375-0.509,0.592-0.754c0.442-0.499,0.035-1.277-0.626-1.194c-0.666,0.084-1.334,0.14-2.005,0.143
				c-1.551,0.009-3.135-0.271-4.476-1.05c-1.007-0.585-1.852-1.44-2.452-2.438c-0.514-0.854-0.834-1.99-0.272-2.814
				c0.322-0.473,0.867-0.735,1.392-0.962c0.469-0.202,0.942-0.389,1.419-0.562c0.634-0.231,0.567-1.144-0.094-1.279l-2.247-0.456
				c-0.624-0.127-1.276-0.266-1.769-0.669c-0.787-0.642-0.961-1.767-0.963-2.783c-0.002-1.35,0.2-2.693,0.252-4.042
				c0.052-1.349-0.055-2.741-0.637-3.96c3.801-1.156,7.822-1.756,11.788-1.514c1.184,0.072,2.397,0.217,3.449,0.766
				c1.499,0.781,2.143,2.27,2.337,3.982c0.037,0.325,0.5,0.359,0.597,0.047l0.845-2.709c0.255-0.816,1.104-1.272,1.934-1.066
				c1.251,0.312,2.443,0.972,3.505,1.79c1.145,0.882,1.9,2.192,2.063,3.629c0.222,1.942,0.269,3.945,0.155,5.894
				c-0.03,0.511,0.587,0.769,0.936,0.396l0.054-0.058c0.311-0.334,0.725-0.578,1.18-0.61c1.202-0.085,1.736,1.044,2.013,2.041
				C69.929,333.408,70.01,335.186,70.033,336.766z"/>
			<path style="fill:#EBEBEB;" d="M65.021,343.862c-0.032-0.078-1.602-3.814-4.915-8.453c-0.018-0.091-0.074-0.169-0.157-0.217
				c-0.103-0.143-0.205-0.286-0.312-0.431c-0.536-6.222,1.04-10.947,1.056-10.994c0.058-0.17-0.033-0.354-0.203-0.413
				c-0.17-0.056-0.354,0.033-0.412,0.203c-0.016,0.046-1.466,4.392-1.156,10.254c-3.695-4.79-9.144-10.172-16.561-13.427
				c-0.165-0.071-0.356,0.003-0.429,0.167c-0.072,0.164,0.003,0.356,0.167,0.428c7.65,3.358,13.175,9.013,16.815,13.892
				c-5.761-1.525-11.147,0.587-11.386,0.683c-0.166,0.067-0.247,0.256-0.18,0.423c0.051,0.127,0.173,0.204,0.302,0.204
				c0.041,0,0.082-0.008,0.121-0.023c0.059-0.023,5.93-2.329,11.774-0.422c3.285,4.591,4.842,8.295,4.874,8.373
				c0.052,0.126,0.173,0.202,0.301,0.202c0.041,0,0.083-0.008,0.123-0.024C65.01,344.218,65.089,344.028,65.021,343.862z"/>
		</g>
	</g>
</g>
<g id="Clouds">
	<g>
		<g>
			<path style="fill:#E6E6E6;" d="M91.107,56.339c4.207-2.429,7.762-1.239,8.892,2.536c1.089-2.115,2.719-4.004,4.545-5.059
				c3.296-1.903,5.979-0.374,5.989,3.413l0.005,1.739l4.425-2.555c2.31-1.333,4.185-0.26,4.193,2.394
				c0.007,2.654-1.856,5.882-4.166,7.215L77.503,87.666c-2.31,1.333-4.189,0.267-4.197-2.387c-0.007-2.654,1.86-5.889,4.17-7.222
				l4.425-2.555l-0.009-3.2C81.875,66.434,86.001,59.287,91.107,56.339z"/>
		</g>
		<g>
			<path style="fill:#E6E6E6;" d="M127.845,70.519c3.02-1.743,5.571-0.89,6.382,1.82c0.782-1.518,1.951-2.874,3.262-3.631
				c2.366-1.366,4.291-0.268,4.299,2.45l0.003,1.248l3.176-1.834c1.658-0.957,3.004-0.187,3.01,1.718
				c0.005,1.905-1.332,4.222-2.99,5.179L118.08,93.004c-1.658,0.957-3.007,0.191-3.012-1.713c-0.005-1.905,1.335-4.227,2.993-5.184
				l3.176-1.834l-0.007-2.297C121.218,77.764,124.18,72.634,127.845,70.519z"/>
		</g>
	</g>
</g>
<g id="Device">
	<g>
		<g>
			<g>
				<path style="opacity:0.2;fill:#455A64;" d="M255.757,313.589c-0.541-2.918-2.235-5.653-5.132-7.391l-23.793-14.271
					c-2.899-1.739-4.673-4.871-4.673-8.252v-4.079v-7.257l-53.782,31.09l-4.488,2.595v12.76l0,0c0,2.634,1.077,5.115,2.919,6.904
					c0.263,0.256,0.542,0.497,0.836,0.723c0.335,0.258,0.69,0.496,1.063,0.71l25.551,14.726c3.649,2.103,7.666,3.289,11.731,3.557
					c0.581,0.038,1.162,0.058,1.744,0.059c0.582,0.001,1.163-0.017,1.744-0.053c1.162-0.073,2.32-0.221,3.466-0.444
					c2.867-0.557,5.665-1.583,8.275-3.077l29.212-16.715C254.791,322.678,256.563,317.93,255.757,313.589z"/>
				<g>
					<path style="fill:#455A64;" d="M255.757,313.589c-0.541-2.918-2.235-5.653-5.132-7.391l-23.793-14.271
						c-2.899-1.739-4.673-4.872-4.673-8.252v-4.079v-7.257l-53.782,31.09l-4.488,2.595v12.76c0,3.44,1.837,6.619,4.817,8.337
						l25.551,14.726c8.34,4.807,18.606,4.823,26.961,0.042l29.212-16.715C254.791,322.678,256.563,317.93,255.757,313.589z"/>
					<path style="fill:#37474F;" d="M250.429,321.096l-29.001,16.594c-8.486,4.855-18.912,4.839-27.383-0.043l-21.519-12.402
						c-2.551-1.471-4.125-4.19-4.129-7.135l-0.02-14.68l-4.488,2.595v12.76c0,3.44,1.837,6.619,4.817,8.337l25.551,14.726
						c8.34,4.807,18.606,4.823,26.961,0.042l29.212-16.715c4.362-2.496,6.133-7.244,5.327-11.585
						C255.201,316.58,253.436,319.375,250.429,321.096z"/>
				</g>
				<g>
					<path style="fill:#263238;" d="M172.526,325.244c-2.551-1.471-4.125-4.19-4.129-7.135l-0.02-14.68l-4.488,2.595v12.76
						c0,3.44,1.837,6.619,4.817,8.337l9.065,5.224v-4.079L172.526,325.244z"/>
					<path style="fill:#37474F;" d="M172.526,325.244l5.244,3.022v0l56.148-32.089l-7.086-4.25
						c-2.899-1.739-4.673-4.872-4.673-8.252v-4.079v-7.257l-53.782,31.09l0.02,14.68
						C168.401,321.054,169.975,323.774,172.526,325.244z"/>
				</g>
			</g>
			<path style="fill:#37474F;" d="M319.601,31.323c-0.007-2.568-0.91-4.378-2.364-5.247l0.003-0.003l-0.043-0.025
				c-0.018-0.01-0.036-0.021-0.055-0.032l0,0c0,0,0,0,0.001,0l-8.609-4.989l0.001,0.007c-0.188-0.119-0.386-0.223-0.593-0.309
				c-0.413-0.173-0.863-0.28-1.341-0.316c-1.196-0.09-2.576,0.259-4.047,1.108L73.921,153.181c-0.004,0.002-0.008,0.005-0.012,0.007
				c-0.298,0.172-0.591,0.362-0.88,0.565c-0.093,0.065-0.182,0.138-0.274,0.207c-0.2,0.148-0.398,0.297-0.593,0.459
				c-0.102,0.084-0.201,0.175-0.301,0.263c-0.182,0.159-0.362,0.32-0.538,0.489c-0.098,0.094-0.193,0.192-0.289,0.289
				c-0.175,0.177-0.348,0.357-0.517,0.544c-0.089,0.098-0.176,0.197-0.262,0.297c-0.173,0.199-0.341,0.402-0.507,0.611
				c-0.076,0.096-0.152,0.192-0.227,0.29c-0.173,0.227-0.341,0.459-0.505,0.695c-0.06,0.085-0.12,0.17-0.178,0.256
				c-0.18,0.267-0.352,0.54-0.519,0.816c-0.037,0.061-0.076,0.121-0.112,0.182c-0.323,0.548-0.617,1.111-0.885,1.683
				c-0.046,0.099-0.095,0.198-0.14,0.297c-0.087,0.194-0.167,0.389-0.247,0.585c-0.052,0.127-0.104,0.253-0.153,0.381
				c-0.07,0.182-0.134,0.364-0.198,0.546c-0.05,0.145-0.1,0.29-0.146,0.436c-0.054,0.17-0.105,0.34-0.154,0.51
				c-0.046,0.163-0.089,0.325-0.13,0.487c-0.039,0.157-0.078,0.313-0.112,0.469c-0.04,0.18-0.073,0.359-0.105,0.538
				c-0.025,0.14-0.053,0.28-0.074,0.42c-0.031,0.206-0.053,0.411-0.074,0.615c-0.012,0.112-0.028,0.225-0.036,0.337
				c-0.024,0.316-0.038,0.628-0.037,0.937c0,0,0,0.001,0,0.001v0l0,0l0.413,183.934c0.004,1.232,0.214,2.287,0.591,3.149
				c0.378,0.862,0.923,1.529,1.598,1.983l-0.001,0l0,0h0l0.01,0.006c0.147,0.099,0.301,0.187,0.461,0.265l8.49,4.945c0,0,0,0,0,0
				l0,0c0.043,0.026,0.085,0.051,0.129,0.075l0.062,0.036v-0.007c1.484,0.78,3.492,0.633,5.708-0.646L311.809,229.47
				c4.542-2.622,8.221-8.994,8.206-14.213L319.601,31.323z M82.627,172.469c-0.005-1.588,1.001-3.823,2.286-5.443
				C83.628,168.647,82.623,170.881,82.627,172.469L82.627,172.469z M305.673,39.266L305.673,39.266L86.771,165.316L311.489,35.912
				L305.673,39.266L305.673,39.266z M82.63,173.729l0.384,171.916l0.014,6.193L82.63,173.729z"/>
			<g>
				<path style="fill:#FFA8A7;" d="M77.468,361.787v-0.007c-0.02-0.01-0.042-0.018-0.062-0.029L77.468,361.787z"/>
				<path style="fill:#FFA8A7;" d="M317.24,26.072l-0.043-0.024c0.014,0.008,0.026,0.019,0.04,0.027L317.24,26.072z"/>
				<path style="fill:#37474F;" d="M319.601,31.323c-0.007-2.568-0.91-4.378-2.364-5.247c-0.014-0.008-0.026-0.019-0.04-0.027
					c-0.018-0.01-0.036-0.021-0.055-0.032l-8.609-4.989l0.001,0.007c-1.506-0.955-3.628-0.875-5.981,0.483L73.921,153.181
					c-4.55,2.627-8.221,8.994-8.206,14.213l0.413,183.934c0.007,2.463,0.84,4.223,2.189,5.131l-0.001,0l0.01,0.006
					c0.147,0.099,0.301,0.187,0.461,0.265l8.49,4.945c0.043,0.026,0.085,0.051,0.129,0.075c0.02,0.011,0.042,0.018,0.062,0.029
					c1.484,0.78,3.492,0.633,5.708-0.646L311.809,229.47c4.543-2.622,8.221-8.994,8.206-14.213L319.601,31.323z M306.061,212.441
					c0.007,2.31-2.123,5.987-4.144,7.154L83.014,345.645l0.014,6.193l-0.401-179.368c-0.007-2.31,2.123-5.987,4.143-7.153
					L311.489,35.912l-5.816,3.354L306.061,212.441z"/>
				<path style="fill:#BA68C8;" d="M306.061,212.441l-0.388-173.175L86.771,165.316c-2.02,1.166-4.15,4.843-4.143,7.153
					l0.387,173.175l218.903-126.049C303.938,218.428,306.067,214.751,306.061,212.441z"/>
				<path style="opacity:0.3;" d="M306.061,212.441l-0.388-173.175L86.771,165.316c-2.02,1.166-4.15,4.843-4.143,7.153
					l0.387,173.175l218.903-126.049C303.938,218.428,306.067,214.751,306.061,212.441z"/>
				<path style="opacity:0.2;fill:#FFFFFF;" d="M306.061,212.441l-0.388-173.175L86.771,165.316c-2.02,1.166-4.15,4.843-4.143,7.153
					l0.387,173.175l218.903-126.049C303.938,218.428,306.067,214.751,306.061,212.441z"/>
				<path style="fill:#455A64;" d="M308.534,21.028l0.001,0.007c-1.506-0.955-3.628-0.875-5.981,0.483L73.921,153.181
					c-2.529,1.46-4.783,4.076-6.287,7.008l8.795,5.084c1.504-2.926,3.755-5.536,6.279-6.994L311.341,26.616
					c2.258-1.304,4.308-1.436,5.801-0.6L308.534,21.028z"/>
				<path style="fill:#263238;" d="M65.715,167.395l0.413,183.934c0.007,2.463,0.84,4.223,2.189,5.131l-0.001,0.001l0.01,0.006
					c0.147,0.099,0.301,0.187,0.461,0.265l8.49,4.945c-1.452-0.87-2.353-2.681-2.361-5.249l-0.414-183.934
					c-0.007-2.323,0.72-4.873,1.927-7.22l-8.795-5.084C66.432,162.532,65.709,165.076,65.715,167.395z"/>
				<path style="fill:#263238;" d="M311.489,35.912l-5.816,3.354l0.388,173.175c0.007,2.31-2.123,5.987-4.144,7.154L83.014,345.645
					l0.014,6.193l224.719-129.404c2.021-1.167,4.151-4.844,4.144-7.154L311.489,35.912z"/>
			</g>
		</g>
	</g>
</g>
<g id="Screen">
	<g>
		<g>
			<g>
				<polygon style="fill:#E6E6E6;" points="106.887,204.473 106.849,191.187 97.921,186.041 97.958,199.021 97.958,199.021 
					97.959,199.316 106.887,204.473 				"/>
				<path style="fill:#EBEBEB;" d="M107.323,358.348l-0.436-153.875l-8.928-5.157l0.435,153.581c0.004,1.27,0.449,2.164,1.163,2.601
					l-0.005,0.004l0.036,0.022c0.01,0.006,0.019,0.012,0.029,0.017l8.83,5.378C107.758,360.471,107.326,359.593,107.323,358.348z"/>
				<path style="fill:#455A64;" d="M111.439,360.694c-0.273,0.158-0.54,0.277-0.798,0.368
					C110.899,360.973,111.166,360.852,111.439,360.694z"/>
				<path style="fill:#455A64;" d="M110.079,361.193c-0.055,0.009-0.114,0.031-0.168,0.037
					C109.965,361.224,110.024,361.203,110.079,361.193z"/>
				<path style="fill:#455A64;" d="M108.659,361.047v-0.013l0,0c-0.017-0.008-0.036-0.011-0.052-0.019L108.659,361.047z"/>
				<path style="fill:#BA68C8;" d="M106.875,191.162l-0.022-7.654c-0.007-2.608,1.82-5.782,4.09-7.092L342.807,42.549
					c1.115-0.644,2.127-0.71,2.87-0.303l-8.838-5.401v0.008c-0.75-0.466-1.798-0.426-2.96,0.245L102.014,170.964
					c-2.27,1.31-4.097,4.484-4.09,7.092l0.022,7.654l0.011,0.004l-0.036,0.021l0.001,0.306l8.928,5.146L106.875,191.162z"/>
				<path style="opacity:0.3;fill:#FFFFFF;" d="M106.875,191.162l-0.022-7.654c-0.007-2.608,1.82-5.782,4.09-7.092L342.807,42.549
					c1.115-0.644,2.127-0.71,2.87-0.303l-8.838-5.401v0.008c-0.75-0.466-1.798-0.426-2.96,0.245L102.014,170.964
					c-2.27,1.31-4.097,4.484-4.09,7.092l0.022,7.654l0.011,0.004l-0.036,0.021l0.001,0.306l8.928,5.146L106.875,191.162z"/>
				<polygon style="opacity:0.2;fill:#E0E0E0;" points="106.887,204.473 106.849,191.187 97.921,186.041 97.958,199.021 
					97.958,199.021 97.959,199.316 106.887,204.473 				"/>
			</g>
			<g>
				<path style="fill:#BA68C8;" d="M342.807,42.549c2.262-1.306,4.109-0.254,4.117,2.354l0.022,7.654L106.875,191.162l-0.022-7.654
					c-0.007-2.608,1.82-5.782,4.09-7.092L342.807,42.549z"/>
			</g>
			<g>
				<g>
					<path style="fill:#FFFFFF;" d="M327.264,55.21c1.212-0.7,2.199-0.138,2.203,1.255c0.004,1.393-0.976,3.091-2.189,3.791
						s-2.199,0.138-2.203-1.255C325.072,57.608,326.052,55.91,327.264,55.21z"/>
				</g>
				<g>
					<path style="fill:#FFFFFF;" d="M333.962,51.343c1.212-0.7,2.199-0.138,2.203,1.255c0.004,1.393-0.976,3.091-2.189,3.791
						c-1.213,0.7-2.199,0.138-2.203-1.255C331.77,53.741,332.75,52.043,333.962,51.343z"/>
				</g>
				<g>
					<path style="fill:#FFFFFF;" d="M340.653,47.48c1.212-0.7,2.199-0.138,2.203,1.255c0.004,1.393-0.976,3.091-2.189,3.791
						c-1.213,0.7-2.199,0.138-2.203-1.255C338.461,49.878,339.441,48.18,340.653,47.48z"/>
				</g>
			</g>
			<g>
				<path style="fill:#E6E6E6;" d="M155.157,155.698c0.902-0.521,1.739-0.434,2.17,0.236l2.179,3.354
					c0.431,0.67,1.261,0.77,2.17,0.245L346.92,52.583l0.038,13.304L106.887,204.491l-0.038-13.304l7.112-4.106
					c0.909-0.525,1.736-1.581,2.169-2.75l2.146-5.851c0.426-1.165,1.26-2.217,2.162-2.737L155.157,155.698z"/>
			</g>
			<g>
				<path style="fill:#F5F5F5;" d="M346.957,65.868l0.436,153.876c0.007,2.599-1.828,5.778-4.09,7.084L111.439,360.694
					c-2.27,1.31-4.109,0.254-4.117-2.346l-0.436-153.875L346.957,65.868z"/>
			</g>
			<g>
				<g>
					<path style="fill:#FFFFFF;" d="M337.463,60.756c1.612-0.93,2.917-0.187,2.922,1.665c0.005,1.852-1.292,4.107-2.903,5.037
						L134.266,184.785c-1.612,0.931-2.924,0.182-2.93-1.67c-0.005-1.852,1.299-4.103,2.911-5.033L337.463,60.756z"/>
				</g>
				<g>
					<path style="fill:#E6E6E6;" d="M110.726,192.368c0.11-0.064,0.22-0.076,0.301-0.021c0.156,0.106,0.142,0.412-0.02,0.684
						l-1.283,2.094l3.364-1.942c0.229-0.132,0.415-0.027,0.415,0.228c0.001,0.263-0.183,0.583-0.413,0.715l-3.364,1.942l1.29,0.608
						c0.163,0.085,0.179,0.373,0.024,0.65c-0.081,0.149-0.192,0.264-0.303,0.328c-0.096,0.055-0.2,0.081-0.281,0.043l-2.061-0.988
						l-0.082-0.081l-0.015-0.025l-0.037-0.166l0.036-0.208l0.015-0.034l0.074-0.17l2.057-3.366
						C110.524,192.527,110.625,192.426,110.726,192.368z"/>
				</g>
				<g>
					<path style="fill:#E6E6E6;" d="M118.005,188.166c0.1-0.058,0.201-0.074,0.283-0.035l2.061,0.98l0.082,0.089l0.022,0.013
						l0.03,0.17l-0.029,0.204l-0.022,0.047l-0.073,0.162l-2.057,3.374c-0.081,0.132-0.177,0.221-0.281,0.281
						c-0.111,0.064-0.215,0.073-0.296,0.018c-0.156-0.097-0.149-0.399,0.02-0.675l1.275-2.089l-3.364,1.942
						c-0.222,0.128-0.407,0.022-0.408-0.241c-0.001-0.255,0.183-0.574,0.405-0.702l3.364-1.942l-1.283-0.612
						c-0.171-0.08-0.179-0.373-0.024-0.658C117.788,188.342,117.895,188.229,118.005,188.166z"/>
				</g>
				<g>
					<path style="fill:#E6E6E6;" d="M124.919,184.174c0.51-0.294,0.991-0.377,1.391-0.259l0.31-0.409
						c0.066-0.089,0.144-0.16,0.222-0.204c0.078-0.045,0.155-0.064,0.222-0.052c0.141,0.021,0.208,0.169,0.186,0.369l-0.174,1.266
						c-0.014,0.145-0.081,0.293-0.176,0.425c-0.066,0.081-0.148,0.162-0.222,0.205l-0.104,0.043l-0.999,0.279
						c-0.155,0.039-0.274-0.037-0.304-0.207c-0.03-0.17,0.043-0.391,0.184-0.574l0.096-0.132c-0.193,0.001-0.407,0.065-0.629,0.193
						c-0.813,0.47-1.476,1.618-1.474,2.553c0.003,0.943,0.67,1.315,1.484,0.846c0.54-0.312,1.034-0.929,1.299-1.626
						c0.07-0.198,0.21-0.368,0.355-0.452c0.067-0.039,0.135-0.059,0.199-0.055c0.2,0.012,0.275,0.258,0.164,0.552
						c-0.404,1.076-1.172,2.038-2.014,2.524c-1.264,0.73-2.303,0.147-2.307-1.314C122.623,186.691,123.654,184.904,124.919,184.174z
						"/>
				</g>
				<g style="opacity:0.3;">
					<path d="M110.726,192.368c0.11-0.064,0.22-0.076,0.301-0.021c0.156,0.106,0.142,0.412-0.02,0.684l-1.283,2.094l3.364-1.942
						c0.229-0.132,0.415-0.027,0.415,0.228c0.001,0.263-0.183,0.583-0.413,0.715l-3.364,1.942l1.29,0.608
						c0.163,0.085,0.179,0.373,0.024,0.65c-0.081,0.149-0.192,0.264-0.303,0.328c-0.096,0.055-0.2,0.081-0.281,0.043l-2.061-0.988
						l-0.082-0.081l-0.015-0.025l-0.037-0.166l0.036-0.208l0.015-0.034l0.074-0.17l2.057-3.366
						C110.524,192.527,110.625,192.426,110.726,192.368z"/>
				</g>
				<g style="opacity:0.3;">
					<path d="M118.005,188.166c0.1-0.058,0.201-0.074,0.283-0.035l2.061,0.98l0.082,0.089l0.022,0.013l0.03,0.17l-0.029,0.204
						l-0.022,0.047l-0.073,0.162l-2.057,3.374c-0.081,0.132-0.177,0.221-0.281,0.281c-0.111,0.064-0.215,0.073-0.296,0.018
						c-0.156-0.097-0.149-0.399,0.02-0.675l1.275-2.089l-3.364,1.942c-0.222,0.128-0.407,0.022-0.408-0.241
						c-0.001-0.255,0.183-0.574,0.405-0.702l3.364-1.942l-1.283-0.612c-0.171-0.08-0.179-0.373-0.024-0.658
						C117.788,188.342,117.895,188.229,118.005,188.166z"/>
				</g>
				<g style="opacity:0.3;">
					<path d="M124.919,184.174c0.51-0.294,0.991-0.377,1.391-0.259l0.31-0.409c0.066-0.089,0.144-0.16,0.222-0.204
						c0.078-0.045,0.155-0.064,0.222-0.052c0.141,0.021,0.208,0.169,0.186,0.369l-0.174,1.266c-0.014,0.145-0.081,0.293-0.176,0.425
						c-0.066,0.081-0.148,0.162-0.222,0.205l-0.104,0.043l-0.999,0.279c-0.155,0.039-0.274-0.037-0.304-0.207
						c-0.03-0.17,0.043-0.391,0.184-0.574l0.096-0.132c-0.193,0.001-0.407,0.065-0.629,0.193c-0.813,0.47-1.476,1.618-1.474,2.553
						c0.003,0.943,0.67,1.315,1.484,0.846c0.54-0.312,1.034-0.929,1.299-1.626c0.07-0.198,0.21-0.368,0.355-0.452
						c0.067-0.039,0.135-0.059,0.199-0.055c0.2,0.012,0.275,0.258,0.164,0.552c-0.404,1.076-1.172,2.038-2.014,2.524
						c-1.264,0.73-2.303,0.147-2.307-1.314C122.623,186.691,123.654,184.904,124.919,184.174z"/>
				</g>
			</g>
			<g>
				<g>
					<polygon style="fill:#E6E6E6;" points="165.963,223.491 165.972,226.813 120.386,253.132 120.377,249.81 					"/>
				</g>
				<g>
					<polygon style="fill:#E6E6E6;" points="222.016,185.105 222.025,188.418 120.369,247.109 120.36,243.796 					"/>
				</g>
				<g>
					<polygon style="fill:#E6E6E6;" points="221.999,179.09 222.008,182.403 120.352,241.094 120.343,237.781 					"/>
				</g>
				<g>
					<polygon style="fill:#E6E6E6;" points="221.982,173.067 221.991,176.389 120.335,235.08 120.326,231.758 					"/>
				</g>
			</g>
			<g>
				<g>
					<polygon style="fill:#37474F;" points="191.31,168.344 191.321,172.057 185.214,175.583 185.219,177.29 190.579,174.196 
						190.589,177.73 185.229,180.824 185.235,182.744 191.57,179.086 191.581,182.79 181.038,188.877 180.997,174.299 					"/>
				</g>
				<g>
					<polygon style="fill:#37474F;" points="179.888,174.939 179.899,178.754 176.18,180.901 176.211,191.664 171.937,194.131 
						171.907,183.368 168.188,185.515 168.177,181.701 					"/>
				</g>
				<g>
					<path style="fill:#37474F;" d="M159.718,196.684l2.674,2.957l-4.562,2.634l-2.169-2.415l-1.161,0.67l0.01,3.661l-4.281,2.471
						l-0.041-14.578l6.107-3.526c3.541-2.044,5.787-1.214,5.797,2.159C162.1,192.825,161.239,194.905,159.718,196.684z
						 M156.051,195.917c1.176-0.679,1.736-1.649,1.733-2.711c-0.003-1.062-0.567-1.383-1.742-0.704l-1.56,0.901l0.01,3.415
						L156.051,195.917"/>
				</g>
				<g>
					<path style="fill:#37474F;" d="M148.23,193.217l0.023,8.02c0.012,4.375-2.265,8.217-6.161,10.467
						c-3.896,2.249-6.188,1.045-6.2-3.33l-0.023-8.02l4.273-2.467l0.022,7.875c0.006,2.226,0.755,2.627,1.953,1.936
						c1.198-0.691,1.935-1.951,1.928-4.177l-0.022-7.875L148.23,193.217z"/>
				</g>
				<g>
					<path style="fill:#37474F;" d="M127.255,204.995c4.133-2.386,7.166-0.921,7.178,3.488c0.012,4.417-3.002,9.375-7.135,11.761
						c-4.133,2.386-7.173,0.925-7.185-3.493C120.1,212.342,123.122,207.381,127.255,204.995z M127.287,216.26
						c1.575-0.909,2.842-3.011,2.836-5.288c-0.006-2.268-1.282-2.91-2.857-2.001c-1.582,0.913-2.842,3.02-2.836,5.288
						C124.437,216.535,125.705,217.173,127.287,216.26"/>
				</g>
				<g>
					<path style="fill:#37474F;" d="M201.572,162.42l5.586,11.377l-4.421,2.553l-0.857-2.049l-4.828,2.787l-0.843,3.031l-4.347,2.51
						l5.504-17.779L201.572,162.42z M198.225,172.87l2.462-1.421l-1.238-2.962L198.225,172.87"/>
				</g>
				<g>
					<polygon style="fill:#37474F;" points="222.997,150.05 223.076,164.607 219.18,166.856 219.124,160.234 216.389,167.157 
						214.503,168.245 211.731,164.732 211.75,171.146 207.853,173.395 207.812,158.817 211.324,156.79 215.479,162.177 
						219.486,152.077 					"/>
				</g>
			</g>
			<g>
				<g>
					<polygon style="fill:#BA68C8;" points="251.652,190.331 251.874,268.811 176.094,312.562 175.872,234.083 					"/>
				</g>
				<g>
					<polygon style="fill:#BA68C8;" points="337.309,83.601 337.435,127.819 234.98,186.971 234.855,142.753 					"/>
				</g>
				<g>
					<polygon style="fill:#455A64;" points="168.479,238.351 168.701,316.831 120.646,344.576 120.423,266.096 					"/>
				</g>
				<g>
					<polygon style="fill:#455A64;" points="336.673,141.244 336.895,219.723 259.267,264.542 259.045,186.063 					"/>
				</g>
				<g>
					<polygon style="opacity:0.4;fill:#FFFFFF;" points="168.479,238.351 168.701,316.831 120.646,344.576 120.423,266.096 					"/>
				</g>
				<g>
					<polygon style="opacity:0.4;fill:#FFFFFF;" points="336.673,141.244 336.895,219.723 259.267,264.542 259.045,186.063 					"/>
				</g>
			</g>
		</g>
		<g>
			<g>
				<g>
					<polygon style="fill:#BA68C8;" points="271.677,129.227 271.691,134.467 242.667,151.271 242.652,146.031 					"/>
				</g>
				<g style="enable-background:new    ;">
					<g>
						<polygon style="fill:#BA68C8;" points="272.657,156.202 272.666,159.407 242.739,176.874 242.73,173.668 						"/>
					</g>
					<g>
						<polygon style="fill:#BA68C8;" points="278.926,146.433 278.935,149.63 242.721,170.471 242.712,167.273 						"/>
					</g>
					<g>
						<polygon style="fill:#BA68C8;" points="259.635,151.089 259.645,154.287 242.703,164.068 242.694,160.871 						"/>
					</g>
				</g>
				<g>
					<polygon style="fill:#BA68C8;" points="278.889,133.627 278.899,136.825 242.685,157.665 242.676,154.468 					"/>
				</g>
			</g>
			<g style="opacity:0.3;">
				<g>
					<polygon style="fill:#FFFFFF;" points="271.677,129.227 271.691,134.467 242.667,151.271 242.652,146.031 					"/>
				</g>
				<g style="enable-background:new    ;">
					<g>
						<polygon style="fill:#FFFFFF;" points="272.657,156.202 272.666,159.407 242.739,176.874 242.73,173.668 						"/>
					</g>
					<g>
						<polygon style="fill:#FFFFFF;" points="278.926,146.433 278.935,149.63 242.721,170.471 242.712,167.273 						"/>
					</g>
					<g>
						<polygon style="fill:#FFFFFF;" points="259.635,151.089 259.645,154.287 242.703,164.068 242.694,160.871 						"/>
					</g>
				</g>
				<g>
					<polygon style="fill:#FFFFFF;" points="278.889,133.627 278.899,136.825 242.685,157.665 242.676,154.468 					"/>
				</g>
			</g>
		</g>
		<g>
			<g>
				<g>
					<polygon style="fill:#455A64;" points="144.535,259.763 144.548,264.547 126.034,275.236 126.021,270.452 					"/>
				</g>
				<g>
					<polygon style="fill:#455A64;" points="162.975,256.788 162.981,259.043 126.049,280.366 126.042,278.111 					"/>
				</g>
				<g>
					<polygon style="fill:#455A64;" points="162.988,261.298 162.994,263.552 126.062,284.875 126.055,282.621 					"/>
				</g>
				<g style="enable-background:new    ;">
					<g>
						<polygon style="fill:#455A64;" points="163.118,307.216 163.124,309.471 126.192,330.794 126.185,328.539 						"/>
					</g>
					<g>
						<polygon style="fill:#455A64;" points="163.105,302.707 163.112,304.962 126.179,326.285 126.173,324.03 						"/>
					</g>
					<g>
						<polygon style="fill:#455A64;" points="142.197,307.106 142.21,311.89 126.164,321.155 126.151,316.37 						"/>
					</g>
					<g>
						<polygon style="fill:#455A64;" points="156.495,292.556 156.502,294.81 126.139,312.34 126.133,310.086 						"/>
					</g>
					<g>
						<polygon style="fill:#455A64;" points="163.053,284.253 163.059,286.508 126.127,307.831 126.12,305.576 						"/>
					</g>
					<g>
						<polygon style="fill:#455A64;" points="163.04,279.751 163.046,282.006 126.114,303.329 126.108,301.075 						"/>
					</g>
				</g>
				<g>
					<polygon style="fill:#455A64;" points="152.285,278.281 152.298,283.073 126.099,298.199 126.086,293.407 					"/>
				</g>
				<g>
					<polygon style="fill:#455A64;" points="144.534,276.469 144.541,278.723 126.074,289.385 126.068,287.13 					"/>
				</g>
				<g>
					<polygon style="fill:#455A64;" points="136.166,327.294 136.173,329.54 126.205,335.296 126.198,333.049 					"/>
				</g>
			</g>
		</g>
		<g style="opacity:0.8;">
			<g>
				<g>
					<polygon style="fill:#FFFFFF;" points="144.535,259.763 144.548,264.547 126.034,275.236 126.021,270.452 					"/>
				</g>
				<g>
					<polygon style="fill:#FFFFFF;" points="162.975,256.788 162.981,259.043 126.049,280.366 126.042,278.111 					"/>
				</g>
				<g>
					<polygon style="fill:#FFFFFF;" points="162.988,261.298 162.994,263.552 126.062,284.875 126.055,282.621 					"/>
				</g>
				<g style="enable-background:new    ;">
					<g>
						<polygon style="fill:#FFFFFF;" points="163.118,307.216 163.124,309.471 126.192,330.794 126.185,328.539 						"/>
					</g>
					<g>
						<polygon style="fill:#FFFFFF;" points="163.105,302.707 163.112,304.962 126.179,326.285 126.173,324.03 						"/>
					</g>
					<g>
						<polygon style="fill:#FFFFFF;" points="142.197,307.106 142.21,311.89 126.164,321.155 126.151,316.37 						"/>
					</g>
					<g>
						<polygon style="fill:#FFFFFF;" points="156.495,292.556 156.502,294.81 126.139,312.34 126.133,310.086 						"/>
					</g>
					<g>
						<polygon style="fill:#FFFFFF;" points="163.053,284.253 163.059,286.508 126.127,307.831 126.12,305.576 						"/>
					</g>
					<g>
						<polygon style="fill:#FFFFFF;" points="163.04,279.751 163.046,282.006 126.114,303.329 126.108,301.075 						"/>
					</g>
				</g>
				<g>
					<polygon style="fill:#FFFFFF;" points="152.285,278.281 152.298,283.073 126.099,298.199 126.086,293.407 					"/>
				</g>
				<g>
					<polygon style="fill:#FFFFFF;" points="144.534,276.469 144.541,278.723 126.074,289.385 126.068,287.13 					"/>
				</g>
				<g>
					<polygon style="fill:#FFFFFF;" points="136.166,327.294 136.173,329.54 126.205,335.296 126.198,333.049 					"/>
				</g>
			</g>
		</g>
		<g>
			<g>
				<polygon style="fill:#BA68C8;" points="224.42,229.932 209.369,258.522 205.111,266.618 208.045,257.501 199.745,251.057 
					190.502,269.415 190.534,280.632 239.034,252.63 239.003,241.413 				"/>
				<path style="fill:#BA68C8;" d="M208.517,245.085c2.283-1.318,4.128-4.514,4.12-7.137c-0.007-2.623-1.864-3.681-4.147-2.363
					s-4.128,4.514-4.12,7.137C204.377,245.345,206.234,246.403,208.517,245.085z"/>
			</g>
			<g style="opacity:0.3;">
				<polygon style="fill:#FFFFFF;" points="224.42,229.932 209.369,258.522 205.111,266.618 208.045,257.501 199.745,251.057 
					190.502,269.415 190.534,280.632 239.034,252.63 239.003,241.413 				"/>
				<path style="fill:#FFFFFF;" d="M208.517,245.085c2.283-1.318,4.128-4.514,4.12-7.137c-0.007-2.623-1.864-3.681-4.147-2.363
					s-4.128,4.514-4.12,7.137C204.377,245.345,206.234,246.403,208.517,245.085z"/>
			</g>
		</g>
		<g>
			<g>
				<polygon style="fill:#455A64;" points="310.248,181.314 295.197,209.903 290.939,217.999 293.873,208.882 285.573,202.438 
					276.33,220.796 276.362,232.013 324.862,204.011 324.831,192.795 				"/>
				<path style="fill:#455A64;" d="M294.345,196.467c2.283-1.318,4.128-4.514,4.12-7.137c-0.007-2.623-1.864-3.681-4.147-2.363
					c-2.283,1.318-4.128,4.514-4.12,7.136C290.205,196.726,292.062,197.785,294.345,196.467z"/>
			</g>
		</g>
		<g style="opacity:0.8;">
			<g>
				<polygon style="fill:#FFFFFF;" points="310.248,181.314 295.197,209.903 290.939,217.999 293.873,208.882 285.573,202.438 
					276.33,220.796 276.362,232.013 324.862,204.011 324.831,192.795 				"/>
				<path style="fill:#FFFFFF;" d="M294.345,196.467c2.283-1.318,4.128-4.514,4.12-7.137c-0.007-2.623-1.864-3.681-4.147-2.363
					c-2.283,1.318-4.128,4.514-4.12,7.136C290.205,196.726,292.062,197.785,294.345,196.467z"/>
			</g>
		</g>
	</g>
</g>
<g id="Character_4">
	<g>
		<polygon style="fill:#FFCAC9;" points="331.143,123.648 328.344,125.264 330.018,151.546 332.689,167.244 341.879,168.314 
			338.12,151.546 333.873,123.797 		"/>
		<path style="fill:#BA68C8;" d="M331.854,165.32c6.335-2.367,10.481,0.959,10.481,0.959l1.037,26.886l-11.307-6.471L331.854,165.32
			z"/>
		<path style="fill:#455A64;" d="M331.854,165.32c6.335-2.367,10.481,0.959,10.481,0.959l1.037,26.886l-11.307-6.471L331.854,165.32
			z"/>
		<path style="opacity:0.1;fill:#FFFFFF;" d="M331.854,165.32c6.335-2.367,10.481,0.959,10.481,0.959l1.037,26.886l-11.307-6.471
			L331.854,165.32z"/>
		<g>
			<g>
				<polygon style="fill:#BA68C8;" points="324.941,97.23 294.993,114.521 295.058,137.41 325.006,120.119 				"/>
				<polygon style="fill:#BA68C8;" points="324.941,97.23 325.006,120.119 327.78,121.731 327.706,95.634 				"/>
				<polygon style="fill:#BA68C8;" points="295.058,137.41 295.067,140.618 327.78,121.731 325.006,120.119 				"/>
				<path style="fill:#BA68C8;" d="M331.047,89.852L291.63,112.61l0.096,33.796l39.418-22.758L331.047,89.852z M295.067,140.618
					l-0.009-3.208l-0.065-22.889l29.948-17.291l2.765-1.596l0.074,26.097L295.067,140.618z"/>
				<polygon style="fill:#BA68C8;" points="331.047,89.852 328.273,88.24 288.856,110.998 291.63,112.61 				"/>
				<polygon style="fill:#BA68C8;" points="288.856,110.998 288.952,144.794 291.725,146.406 291.63,112.61 				"/>
			</g>
			<g>
				<polygon style="fill:#BA68C8;" points="294.993,114.521 324.941,97.23 325.006,120.119 295.058,137.41 				"/>
				<g>
					<g style="enable-background:new    ;">
						<g>
							<polygon style="fill:#BA68C8;" points="315.426,105.921 323.593,112.352 323.611,118.634 296.446,134.318 296.428,128.035 
								301.605,117.753 306.254,121.362 304.61,126.468 306.996,121.934 							"/>
						</g>
						<g>
							<path style="fill:#BA68C8;" d="M306.503,109.087c1.279-0.738,2.319-0.145,2.323,1.324c0.004,1.469-1.029,3.259-2.308,3.997
								c-1.279,0.738-2.319,0.145-2.323-1.324C304.191,111.615,305.224,109.826,306.503,109.087z"/>
						</g>
					</g>
				</g>
			</g>
		</g>
		<polygon style="opacity:0.5;fill:#FFFFFF;" points="324.941,97.23 325.006,120.119 327.78,121.731 327.706,95.634 		"/>
		<polygon style="opacity:0.8;fill:#FFFFFF;" points="295.058,137.41 295.067,140.618 327.78,121.731 325.006,120.119 		"/>
		<path style="opacity:0.7;fill:#FFFFFF;" d="M331.047,89.852L291.63,112.61l0.096,33.796l39.418-22.758L331.047,89.852z
			 M295.067,140.618l-0.009-3.208l-0.065-22.889l29.948-17.291l2.765-1.596l0.074,26.097L295.067,140.618z"/>
		<polygon style="opacity:0.9;fill:#FFFFFF;" points="331.047,89.852 328.273,88.24 288.856,110.998 291.63,112.61 		"/>
		<polygon style="opacity:0.5;fill:#FFFFFF;" points="288.856,110.998 288.952,144.794 291.725,146.406 291.63,112.61 		"/>
		<path style="opacity:0.6;fill:#FFFFFF;" d="M324.941,97.23l-29.948,17.291l0.065,22.889l29.948-17.291L324.941,97.23z
			 M306.503,109.087c1.279-0.738,2.319-0.145,2.323,1.324c0.004,1.469-1.029,3.259-2.308,3.997
			c-1.279,0.738-2.319,0.145-2.323-1.324C304.191,111.615,305.224,109.826,306.503,109.087z M296.446,134.318l-0.018-6.282
			l5.177-10.282l4.648,3.609l-1.643,5.106l2.385-4.534l8.43-16.013l8.168,6.431l0.018,6.282L296.446,134.318z"/>
		<polygon style="opacity:0.3;fill:#FFFFFF;" points="315.426,105.921 306.995,121.934 304.61,126.468 306.254,121.362 
			301.605,117.753 296.428,128.035 296.446,134.318 323.611,118.634 323.593,112.352 		"/>
		<path style="opacity:0.3;fill:#FFFFFF;" d="M306.518,114.408c1.278-0.738,2.312-2.528,2.308-3.997
			c-0.004-1.469-1.044-2.062-2.323-1.324c-1.279,0.738-2.312,2.528-2.308,3.997C304.199,114.554,305.24,115.146,306.518,114.408z"/>
		<path style="fill:#FFCAC9;" d="M304.077,173.652l-5.152-6.691l-5.746-27.087c-0.154-0.726-0.089-1.482,0.186-2.171l0.691-1.731
			c0.364-0.913,0.536-1.891,0.504-2.872l-0.124-3.796c-0.02-0.624-0.533-1.12-1.157-1.12l0,0c-0.56,0-1.04,0.401-1.139,0.952
			l-0.594,3.294l-1.392,1.601l-1.261-4.508v-5.726l-2.84,4.12c-0.764,1.108-1.068,2.47-0.849,3.798l1.19,7.208l2.931,29.671
			c0.298,3.023,1.472,5.893,3.376,8.259l3.208,3.985L304.077,173.652z"/>
		<g>
			<g>
				<g>
					<path style="fill:#455A64;" d="M320.095,331.578c-0.541,1.704-2.409,2.678-4.191,2.82c-1.782,0.142-3.542-0.359-5.301-0.678
						c-3.938-0.714-7.735-0.006-11.662-0.099c-1.289-0.03-2.589-0.089-3.836-0.417c-1.247-0.327-2.45-0.945-3.279-1.932
						c-0.49-0.583-0.825-1.307-0.944-2.056c-0.193,1.124,0.204,2.326,0.944,3.207c0.829,0.987,2.032,1.605,3.279,1.932
						c1.247,0.327,2.547,0.387,3.836,0.417c3.927,0.092,7.724-0.615,11.662,0.099c1.759,0.319,3.519,0.819,5.301,0.678
						c1.782-0.142,3.65-1.117,4.191-2.82c0.186-0.586,0.198-1.2,0.137-1.815C320.205,331.139,320.164,331.361,320.095,331.578z"/>
					<path style="fill:#455A64;" d="M319.994,328.315c-0.241-1.193-0.483-2.385-0.724-3.578c-0.128-0.631-0.262-1.277-0.606-1.821
						c-0.345-0.544-0.952-0.969-1.593-0.91c-2.156-0.287-5.189-1.067-6.981,0.166c-2.805,1.931-6.241,2.929-9.644,2.801
						c-1.782-0.067-3.565-0.432-5.335-0.215c-1.77,0.217-3.611,1.203-4.137,2.906c-0.156,0.504-0.174,1.035-0.091,1.553
						c0.119,0.749,0.454,1.473,0.944,2.056c0.829,0.987,2.032,1.605,3.279,1.932c1.247,0.327,2.547,0.387,3.836,0.417
						c3.927,0.092,7.724-0.615,11.662,0.099c1.759,0.319,3.519,0.819,5.301,0.678c1.782-0.142,3.65-1.116,4.191-2.82
						c0.069-0.218,0.11-0.44,0.137-0.663C320.334,330.06,320.167,329.17,319.994,328.315z"/>
				</g>
				<path style="fill:#FFCAC9;" d="M309.568,318.424l-0.154,4.661c-0.033,0.991,0.723,1.84,1.712,1.906
					c1.601,0.106,3.16,0.099,4.698-0.045c1.309-0.123,2.332-1.184,2.402-2.497l0.185-3.442L309.568,318.424z"/>
			</g>
			<g>
				<g>
					<path style="fill:#455A64;" d="M340,315.944c-0.049,0.692-0.214,1.375-0.624,1.925c-0.514,0.691-1.353,1.08-2.2,1.238
						c-2.045,0.383-4.276-0.535-5.459-2.247c-0.586-0.848-0.92-1.847-1.474-2.716c-0.77-1.206-1.925-2.106-3.061-2.977
						c-1.136-0.871-2.297-1.761-3.084-2.955c-0.762-1.156-1.112-2.67-0.59-3.943c-0.109,0.156-0.208,0.32-0.289,0.496
						c-0.614,1.338-0.25,2.967,0.553,4.199c0.804,1.232,1.988,2.149,3.147,3.047c1.159,0.897,2.338,1.825,3.123,3.068
						c0.566,0.896,0.906,1.926,1.504,2.8c1.207,1.765,3.484,2.712,5.571,2.317c0.864-0.164,1.72-0.564,2.245-1.276
						c0.554-0.751,0.671-1.742,0.652-2.678C340.013,316.142,340.005,316.043,340,315.944z"/>
					<path style="fill:#455A64;" d="M338.586,310.093c-1.417-2.483-4.339-4.291-6.593-6.049c-1.279-0.998-2.752-1.85-4.369-1.984
						c-1.617-0.134-3.388,0.607-4.07,2.079c-0.02,0.042-0.03,0.087-0.047,0.13c-0.522,1.273-0.172,2.787,0.59,3.943
						c0.788,1.195,1.948,2.085,3.084,2.955c1.136,0.87,2.291,1.77,3.061,2.977c0.555,0.869,0.888,1.868,1.474,2.716
						c1.183,1.712,3.414,2.631,5.459,2.247c0.847-0.159,1.685-0.547,2.2-1.238c0.41-0.55,0.575-1.233,0.624-1.925
						c0.016-0.224,0.02-0.45,0.015-0.672C339.979,313.463,339.483,311.665,338.586,310.093z"/>
				</g>
				<path style="fill:#FFCAC9;" d="M332.442,307.94v4.236c3.865,1.615,6.592-0.291,6.592-0.291l0.397-3.812L332.442,307.94z"/>
			</g>
			<path style="fill:#BA68C8;" d="M340.543,231.083c1.271,3.812-0.291,21.921-1.033,39.289c2.754,6.566,2.012,25.204,0.424,38.442
				c0,0-2.754,1.694-7.731,0l-6.248-36.535l-0.867-20.651c0,0-1.568,18.321-3.369,30.076c1.694,9.001,1.271,10.696-2.912,38.384
				c0,0-4.289,2.493-9.372,0c-2.366-38.901-1.496-74.35-1.047-87.097L340.543,231.083z"/>
			<path style="opacity:0.5;" d="M340.543,231.083c1.271,3.812-0.291,21.921-1.033,39.289c2.754,6.566,2.012,25.204,0.424,38.442
				c0,0-2.754,1.694-7.731,0l-6.248-36.535l-0.867-20.651c0,0-1.568,18.321-3.369,30.076c1.694,9.001,1.271,10.696-2.912,38.384
				c0,0-4.289,2.493-9.372,0c-2.366-38.901-1.496-74.35-1.047-87.097L340.543,231.083z"/>
			<path style="opacity:0.1;fill:#FFFFFF;" d="M340.543,231.083c1.271,3.812-0.291,21.921-1.033,39.289
				c2.754,6.566,2.012,25.204,0.424,38.442c0,0-2.754,1.694-7.731,0l-6.248-36.535l-0.867-20.651c0,0-1.568,18.321-3.369,30.076
				c1.694,9.001,1.271,10.696-2.912,38.384c0,0-4.289,2.493-9.372,0c-2.366-38.901-1.496-74.35-1.047-87.097L340.543,231.083z"/>
			<path style="opacity:0.3;" d="M325.616,264.203l-0.707-16.842c4.353,0,8.392-3.253,11.463-6.338
				c-2.951,5.256-8.67,7.586-8.67,7.586L325.616,264.203z"/>
		</g>
		<path style="fill:#455A64;" d="M307.723,234.022c19.42,8.137,32.006,0.786,33.714-3.038c-0.895-13.426,2.278-29.131,2.034-35.803
			c-0.244-6.672-1.062-14.189-11.408-12.682l-11.002,1.073l-5.582,1.356l-6.694,13.903L307.723,234.022z"/>
		<g>
			<path style="fill:#37474F;" d="M332.064,177.225c0.657,0.088,1.698-0.241,2.149-0.727c0.451-0.486,0.647-1.196,0.51-1.845
				c0.651-0.118,1.228-0.586,1.478-1.199c0.25-0.613,0.039-1.47-0.344-2.01c0.943-0.238,1.766-0.91,2.188-1.786
				c0.422-0.876,0.5-2.01,0.098-2.895c1.036-0.264,1.904-1.108,2.198-2.136c0.294-1.028,0.116-2.364-0.624-3.136
				c0.905-1.178,1.101-2.859,0.493-4.214c-0.608-1.354-2.137-2.336-3.618-2.442c0.228-1.427-0.328-2.954-1.42-3.9
				c-1.092-0.946-2.621-1.212-4.001-0.782c-0.473-1.206-1.62-2.121-2.901-2.315c-1.281-0.194-2.695,0.204-3.504,1.217
				c-0.63-0.725-1.641-1.097-2.591-0.955c-0.95,0.142-1.955,0.668-2.345,1.545c-1.221-0.546-2.719-0.42-3.832,0.322
				c-1.113,0.741-1.754,2.104-1.722,3.442c-0.985,0.266-1.715,1.272-1.662,2.291c0.053,1.019,0.908,2.045,1.915,2.208
				c0.953,5.219,2.733,10.396,5.16,15.114c1.09,2.12,2.427,4.272,4.542,5.373C326.518,179.583,330.107,178.903,332.064,177.225z"/>
			<polygon style="fill:#FFA8A7;" points="313.745,164.803 311.466,168.763 313.962,169.685 			"/>
			<path style="fill:#FFCAC9;" d="M314.529,157.906c-1.51,5.459-1.74,11.27-0.654,16.83c0.185,0.947,0.426,1.925,1.047,2.664
				c0.702,0.834,1.807,1.245,2.894,1.332c1.087,0.087,2.174-0.113,3.246-0.313v5.153c3.911,0.922,7.936,1.287,11.002-1.073v-5.274
				c-2.198,0.646-4.591,0.914-6.829,0.427c-2.702-1.457-3.245-6.394-2.865-7.696c0.399,0.656,1.364,0.913,2.113,0.742
				c0.749-0.171,1.369-0.728,1.754-1.393c0.384-0.665,0.557-1.432,0.655-2.194c0.119-0.928,0.115-1.936-0.401-2.717
				c-0.633-0.959-1.949-1.327-3.06-1.032c-1.111,0.295-2.011,1.152-2.576,2.154c-0.179,0.316-0.327,0.647-0.453,0.986
				c-0.229,0.617-1.126,0.504-1.186-0.151c-0.135-1.473,0.125-2.983,0.775-4.312c-0.869,0.013-1.687-0.657-2.208-1.353
				c-0.521-0.696-0.684-1.646-0.426-2.476C316.05,158.361,314.529,157.906,314.529,157.906z"/>
		</g>
		<path style="fill:#BA68C8;" d="M315.481,184.928l-11.868-13.57c-6.823,1.671-10.67,8.754-10.67,8.754l15.844,18.719
			C320.414,203.395,315.481,184.928,315.481,184.928z"/>
		<path style="fill:#FFCAC9;" d="M330.145,124.224l-0.867-3.391l-0.909-4.091c-0.116-0.524,0.182-1.05,0.691-1.22l0,0
			c0.545-0.182,1.135,0.11,1.321,0.653l0.763,2.221v-6.266l2.613,4.678c0.394,0.704,0.568,1.51,0.502,2.314l-0.386,4.674
			L330.145,124.224z"/>
		<path style="fill:#455A64;" d="M315.481,184.928l-11.868-13.57c-6.823,1.671-10.67,8.754-10.67,8.754l15.844,18.719
			C320.414,203.395,315.481,184.928,315.481,184.928z"/>
		<path style="opacity:0.1;fill:#FFFFFF;" d="M315.481,184.928l-11.868-13.57c-6.823,1.671-10.67,8.754-10.67,8.754l15.844,18.719
			C320.414,203.395,315.481,184.928,315.481,184.928z"/>
	</g>
</g>
<g id="Character_3">
	<g>
		<path style="fill:#FFBEA7;" d="M408.185,257.404c-1.592-5.464-3.237-9.666-4.256-12.068c0,0,0,0,0,0
			c-5.198-13.911-8.633-17.567-14.783-16.423l4.247,19.942l5.345,10.324l-4.854,8.13l5.366,8.491l8.107-12.583
			C408.466,261.492,408.758,259.372,408.185,257.404z"/>
		<g>
			<path style="fill:#263238;" d="M379.667,374.678c-0.503,1.055-2.097,2.029-3.842,2.317c-1.745,0.288-3.521-0.09-5.272-0.335
				c-2.604-0.363-5.249-0.431-7.869-0.201c-1.631,0.143-3.26,0.401-4.896,0.35c-1.637-0.051-3.319-0.442-4.603-1.459
				c-0.911-0.721-1.566-1.803-1.728-2.936c-0.213,1.478,0.543,3.023,1.728,3.96c1.284,1.016,2.966,1.407,4.603,1.458
				c1.637,0.051,3.265-0.207,4.896-0.35c2.619-0.23,5.265-0.162,7.869,0.201c1.752,0.244,3.652,0.747,5.397,0.459
				c1.745-0.288,3.34-1.262,3.842-2.317L379.667,374.678z"/>
			<g>
				<path style="fill:#FFFFFF;" d="M360.566,371.565c1.468,0,0.928-2.173,2.326-3.629c-0.568,0.033-1.139,0.043-1.71,0.041
					C359.926,369.786,359.574,371.565,360.566,371.565z"/>
				<path style="fill:#FFFFFF;" d="M363.616,371.452c1.477,0,1.089-2.59,2.54-4.101c-0.331,0.114-0.666,0.213-1.005,0.289
					c-0.289,0.065-0.581,0.114-0.873,0.158C362.985,369.629,362.612,371.452,363.616,371.452z"/>
				<path style="fill:#455A64;" d="M378.148,366.487c-0.099-0.479-0.371-0.905-0.764-1.196l-7.935-0.198
					c-0.812,1.084-2.005,1.815-3.294,2.258c-1.451,1.511-1.064,4.101-2.54,4.101c-1.004,0-0.632-1.823,0.662-3.654
					c-0.459,0.068-0.922,0.112-1.387,0.139c-1.397,1.456-0.857,3.629-2.326,3.629c-0.992,0-0.64-1.779,0.616-3.588
					c-0.371-0.001-0.742-0.006-1.112-0.011c-0.336-0.005-0.675-0.028-1.015-0.056c-2.917,2.307-3.166,4.811-2.789,8.739
					c0.503,0.09,1.013,0.143,1.52,0.159c1.637,0.051,3.265-0.207,4.896-0.35c2.619-0.23,5.265-0.162,7.869,0.201
					c1.752,0.244,3.527,0.622,5.272,0.335c1.745-0.288,3.34-1.262,3.842-2.317L378.148,366.487z"/>
				<path style="fill:#FFFFFF;" d="M359.055,367.911c-1.334-0.109-2.684-0.314-3.967,0c-1.61,0.393-3.151,1.504-3.57,3.107
					c-0.121,0.461-0.129,0.932-0.062,1.397c0.162,1.133,0.817,2.215,1.728,2.936c0.886,0.701,1.963,1.1,3.082,1.299
					C355.889,372.722,356.138,370.218,359.055,367.911z"/>
			</g>
			<path style="fill:#FFBEA7;" d="M369.224,362.832v3.823c0,0.867,0.703,1.571,1.571,1.571h4c1.391,0,2.53-1.103,2.576-2.493
				l0.095-2.901H369.224z"/>
		</g>
		<g>
			<path style="fill:#263238;" d="M395.665,361.132c-0.477,0.955-1.344,1.6-2.407,1.685c-1.042,0.084-2.163-0.189-3.046-0.749
				c-1.376-0.874-1.913-2.249-2.852-3.488c-0.936-1.236-2.136-2.246-3.318-3.24c-1.249-1.051-2.502-2.187-3.171-3.676
				c-0.19-0.423-0.313-0.882-0.375-1.348c-0.122,0.863,0.017,1.788,0.375,2.587c0.669,1.489,1.922,2.625,3.171,3.676
				c1.182,0.995,2.382,2.004,3.318,3.24c0.939,1.239,1.475,2.615,2.852,3.488c0.883,0.561,2.005,0.833,3.046,0.749
				c1.063-0.086,1.93-0.73,2.407-1.685c0.164-0.328,0.172-1.302,0.145-2.131C395.791,360.634,395.748,360.966,395.665,361.132z"/>
			<g>
				<path style="fill:#FFFFFF;" d="M386.65,352.741c-0.113,0.199-0.24,0.43-0.193,0.654c0.047,0.224,0.217,0.418,0.434,0.493
					c0.304,0.105,0.646-0.024,0.892-0.231c0.246-0.207,0.421-0.484,0.619-0.737c0.526-0.672,1.241-1.193,2.042-1.49
					c0.392-0.145,0.804-0.234,1.221-0.269c-0.331-0.302-0.662-0.603-0.992-0.905c-0.624,0.039-1.242,0.179-1.809,0.444
					C387.939,351.133,387.155,351.856,386.65,352.741z"/>
				<path style="fill:#FFFFFF;" d="M386.861,349.587c-0.923,0.432-1.707,1.155-2.212,2.04c-0.114,0.199-0.24,0.43-0.193,0.654
					c0.047,0.224,0.217,0.418,0.434,0.493c0.304,0.105,0.646-0.024,0.892-0.231c0.246-0.207,0.421-0.484,0.619-0.737
					c0.526-0.672,1.241-1.193,2.041-1.49c0.638-0.236,1.328-0.322,2.005-0.265c-0.327-0.298-0.654-0.596-0.981-0.895
					C388.579,349.071,387.669,349.209,386.861,349.587z"/>
				<path style="fill:#FFFFFF;" d="M388.84,348.594c-0.945-0.84-1.94-1.634-3.115-2.081c-1.422-0.54-3.185-0.463-4.281,0.591
					c-0.843,0.811-1.108,2.034-0.948,3.211c0.063,0.466,0.186,0.926,0.375,1.348c0.254,0.566,0.593,1.081,0.984,1.559
					C382.236,349.805,385.202,348.206,388.84,348.594z"/>
				<path style="fill:#455A64;" d="M395.745,357.78c-0.089-1.224-0.154-2.282-0.777-3.341l-1.929-2.023
					c-0.459-0.418-0.917-0.836-1.376-1.255c-0.417,0.035-0.829,0.124-1.221,0.269c-0.8,0.296-1.515,0.818-2.042,1.49
					c-0.198,0.253-0.373,0.53-0.619,0.737c-0.246,0.207-0.588,0.336-0.892,0.231c-0.216-0.075-0.387-0.269-0.434-0.493
					c-0.047-0.224,0.08-0.455,0.193-0.654c0.505-0.885,1.289-1.608,2.212-2.04c0.566-0.265,1.184-0.405,1.809-0.444
					c-0.074-0.068-0.149-0.136-0.224-0.204c-0.678-0.057-1.367,0.029-2.005,0.265c-0.8,0.296-1.515,0.818-2.041,1.49
					c-0.198,0.253-0.373,0.53-0.619,0.737c-0.246,0.207-0.588,0.336-0.892,0.231c-0.216-0.075-0.387-0.269-0.434-0.493
					c-0.047-0.224,0.08-0.455,0.193-0.654c0.505-0.885,1.289-1.608,2.212-2.04c0.808-0.378,1.717-0.517,2.605-0.429
					c-0.012-0.011-0.024-0.022-0.036-0.033c-0.195-0.178-0.392-0.355-0.59-0.531c-3.638-0.388-6.604,1.211-6.985,4.628
					c0.637,0.781,1.412,1.466,2.187,2.117c1.182,0.995,2.382,2.004,3.318,3.24c0.939,1.239,1.475,2.615,2.852,3.488
					c0.883,0.561,2.005,0.833,3.046,0.749c1.063-0.086,1.93-0.73,2.407-1.685c0.083-0.166,0.126-0.498,0.145-0.892
					C395.852,359.345,395.77,358.128,395.745,357.78z"/>
			</g>
			<path style="fill:#FFBEA7;" d="M388.782,351.738l0.227,4.102c2.59,1.493,5.312,0.68,6.219-0.265l0.17-3.837H388.782z"/>
		</g>
		<path style="fill:#FFBEA7;" d="M393.883,263.062c-0.219-0.441-0.361-0.918-0.392-1.413l-0.221-3.52l-25.089,1.611
			c-0.332,1.76-0.668,3.915-0.996,6.357C376.045,268.454,385.776,267.334,393.883,263.062z"/>
		<path style="fill:#BA68C8;" d="M377.628,230.548l-6.714,1.321c-1.484,2.715-2.996,5.265-4.48,7.98
			c-1.118,2.045-2.268,4.22-2.183,6.549c0.09,2.479,1.729,4.836,4.021,5.785l-0.775,9.167c10.543,3.221,23.429,0.391,26.26-2.05
			c0.833-3.842,1.57-7.927,2.402-11.77c0.541-2.496,1.084-5.011,1.136-7.564s-0.418-5.178-1.772-7.344
			c-0.014-0.022-0.027-0.043-0.041-0.065c-1.74-2.732-5.042-4.046-8.24-3.538L377.628,230.548z"/>
		<path style="opacity:0.1;" d="M377.628,230.548l-6.714,1.321c-1.484,2.715-2.996,5.265-4.48,7.98
			c-1.118,2.045-2.268,4.22-2.183,6.549c0.09,2.479,1.729,4.836,4.021,5.785l-0.775,9.167c10.543,3.221,23.429,0.391,26.26-2.05
			c0.833-3.842,1.57-7.927,2.402-11.77c0.541-2.496,1.084-5.011,1.136-7.564s-0.418-5.178-1.772-7.344
			c-0.014-0.022-0.027-0.043-0.041-0.065c-1.74-2.732-5.042-4.046-8.24-3.538L377.628,230.548z"/>
		<path style="opacity:0.3;" d="M377.628,230.548l-6.714,1.321c-1.484,2.715-2.996,5.265-4.48,7.98
			c-1.118,2.045-2.268,4.22-2.183,6.549c0.09,2.479,1.729,4.836,4.021,5.785l-0.775,9.167c10.543,3.221,23.429,0.391,26.26-2.05
			c0.833-3.842,1.57-7.927,2.402-11.77c0.541-2.496,1.084-5.011,1.136-7.564s-0.418-5.178-1.772-7.344
			c-0.014-0.022-0.027-0.043-0.041-0.065c-1.74-2.732-5.042-4.046-8.24-3.538L377.628,230.548z"/>
		<path style="fill:#BA68C8;" d="M394.273,263.704c-0.153-0.2-0.278-0.418-0.389-0.642c-8.108,4.273-17.839,5.392-26.698,3.035
			c-1.892,14.075-3.517,37.909-2.518,53.633c0.83,18.304,4.198,44.223,4.198,44.223c4.393,1.318,7.688,0.513,8.932-0.439
			c1.464-18.158,4.686-30.605,2.197-42.612c1.66-8.396,2.733-18.939,2.733-18.939l1.269,18.548l4.295,32.606
			c4.198,2.148,7.712-0.391,7.712-0.391c3.124-18.646,4.295-31.28,1.562-40.534C401.737,281.594,401.95,273.766,394.273,263.704z"/>
		<path style="opacity:0.4;fill:#FFFFFF;" d="M394.273,263.704c-0.153-0.2-0.278-0.418-0.389-0.642
			c-8.108,4.273-17.839,5.392-26.698,3.035c-1.892,14.075-3.517,37.909-2.518,53.633c0.83,18.304,4.198,44.223,4.198,44.223
			c4.393,1.318,7.688,0.513,8.932-0.439c1.464-18.158,4.686-30.605,2.197-42.612c1.66-8.396,2.733-18.939,2.733-18.939l1.269,18.548
			l4.295,32.606c4.198,2.148,7.712-0.391,7.712-0.391c3.124-18.646,4.295-31.28,1.562-40.534
			C401.737,281.594,401.95,273.766,394.273,263.704z"/>
		<path style="opacity:0.2;" d="M384.574,298.296l2.302-9.659c2.685-0.439,6.882-2.197,9.089-5.88
			c-3.156,2.445-7.147,3.927-11.139,3.927l-2.099,15.278l0.447,6.529l0.18-2.376C383.554,303.481,383.962,300.866,384.574,298.296z"
			/>
		<path style="fill:#FFBEA7;" d="M369.866,231.746c-4.155,0.196-10.393,0.882-16.515,0.765c-3.229-0.062-6.726-0.369-10.405-1.146
			c0,0-8.2-9.454-10.592-13.652c0.569-2.252,1.143-4.466,1.713-6.707c0.194-0.763,0.152-1.574-0.138-2.305
			c-0.405-1.02-0.905-2.055-1.484-2.91c-0.803-1.187-1.348-2.445-2.729-2.829c-2.105-0.586,0.221,2.251,0.919,3.385
			c-1.163,0.406-2.271,0.962-3.301,1.638c-0.662,0.436-0.792,1.354-0.279,1.958c0.11,0.13,0.221,0.258,0.333,0.387
			c-1.353,2.339-1.362,5.624-0.137,8.033l7.195,18.615c0.882,2.282,2.895,3.935,5.306,4.357l11.553,2.019l14.422,2.521
			c3.093,0.541,6.22-1.519,6.967-4.569c0.448-1.827,0.929-3.357,1.205-5.137C374.274,233.76,372.3,231.631,369.866,231.746z"/>
		<g>
			<polygon style="fill:#E39B81;" points="368.39,214.459 366.317,218.062 368.587,218.901 			"/>
			<path style="fill:#FFBEA7;" d="M368.155,212.852c0.333-3.161,1.258-6.141,3.316-7.652c-0.713,4.143,0.713,8.883,2.37,11.311
				c0.2-1.042,0.747-1.997,1.532-2.71c0.784-0.714,1.969-1.044,2.945-0.629c0.689,0.294,1.2,0.919,1.481,1.613
				c0.547,1.354,0.233,3.015-0.771,4.076c-1.004,1.061-2.645,1.466-4.027,0.995c0.466,2.822,2.875,5.122,5.668,5.741
				c1.83,0.405,3.743,0.162,5.496-0.523l0.857,4.26c-3.468,3.7-9.393,1.214-9.393,1.214l-0.78-4.191
				c-6.821,0.405-7.457,0.289-8.208-3.468C368.227,220.825,367.75,216.704,368.155,212.852z"/>
			<path style="fill:#263238;" d="M377.537,199.616c-3.231-1.158-7.057,0.589-8.822,3.532c-1.765,2.943-1.67,6.751-0.341,9.916
				c0.112-5.125,3.098-7.864,3.098-7.864c-0.643,4.838-0.084,8.363,2.37,11.311c0.519,0.624,0.838,1.447,0.83,2.258
				c-0.008,0.812-0.195,1.619-0.139,2.429c0.118,1.704,1.268,3.134,2.35,4.455c1.082,1.321,2.201,2.792,2.234,4.499
				c0.056,2.826-0.81,5.819-0.973,8.64c-0.163,2.821,0.332,5.764,1.916,8.104c2.266,3.349,6.664,5.007,10.639,4.262
				c3.974-0.746,7.384-3.731,8.923-7.47c1.539-3.739,1.271-8.116-0.443-11.779c-1.435-3.066-3.797-5.632-5.178-8.723
				c-1.529-3.423-1.758-7.258-2.204-10.981c-0.446-3.723-1.207-7.589-3.554-10.513C385.897,198.769,380.791,197.752,377.537,199.616
				z"/>
		</g>
	</g>
</g>
<g id="Character_2">
	<g>
		<g>
			<path style="fill:#8C5757;" d="M322.933,329.32l1.876,3.955l-4.485,4.934l0.326,11.783l14.46-12.555
				c1.333-1.157,1.726-3.062,0.961-4.652l-4.412-9.171L322.933,329.32z"/>
			<path style="fill:#6E3636;" d="M327.391,336.802c0,0-2.025-1.678-2.582-3.527l-1.117,1.229
				C324.277,335.404,325.455,336.377,327.391,336.802z"/>
			<path style="fill:#BA68C8;" d="M322.573,330.272c5.742-0.503,9.656-6.455,9.656-6.455c-5.137-10.519-9.622-22.221-18.592-19.428
				L322.573,330.272z"/>
			<path style="opacity:0.4;fill:#FFFFFF;" d="M322.573,330.272c5.742-0.503,9.656-6.455,9.656-6.455
				c-5.137-10.519-9.622-22.221-18.592-19.428L322.573,330.272z"/>
		</g>
		<g>
			<g>
				<g>
					<path style="fill:#263238;" d="M300.159,453.98c-0.542,1.707-2.414,2.684-4.2,2.826c-1.785,0.142-3.55-0.36-5.312-0.68
						c-3.946-0.715-7.752-0.006-11.687-0.099c-1.292-0.03-2.594-0.09-3.844-0.418c-1.25-0.328-2.456-0.947-3.286-1.937
						c-0.491-0.584-0.827-1.31-0.946-2.06c-0.193,1.127,0.204,2.331,0.946,3.214c0.831,0.99,2.037,1.608,3.286,1.937
						c1.249,0.328,2.552,0.387,3.844,0.418c3.935,0.093,7.741-0.616,11.687,0.099c1.762,0.319,3.527,0.821,5.312,0.679
						c1.786-0.142,3.658-1.119,4.2-2.826c0.186-0.588,0.198-1.202,0.137-1.819C300.27,453.54,300.229,453.762,300.159,453.98z"/>
					<path style="fill:#BA68C8;" d="M300.058,450.71c-0.242-1.195-0.484-2.391-0.726-3.586c-0.128-0.632-0.262-1.28-0.608-1.825
						c-0.345-0.545-0.954-0.971-1.596-0.912c-2.161-0.288-5.2-1.07-6.996,0.167c-2.811,1.935-6.254,2.935-9.665,2.807
						c-1.785-0.067-3.573-0.433-5.346-0.215c-1.773,0.217-3.619,1.205-4.146,2.912c-0.156,0.505-0.174,1.037-0.092,1.557
						c0.119,0.75,0.456,1.476,0.946,2.06c0.831,0.989,2.037,1.608,3.286,1.937c1.249,0.328,2.552,0.387,3.844,0.418
						c3.935,0.093,7.741-0.616,11.687,0.099c1.762,0.319,3.527,0.821,5.312,0.68c1.786-0.142,3.658-1.119,4.2-2.826
						c0.069-0.218,0.11-0.44,0.137-0.665C300.399,452.459,300.231,451.567,300.058,450.71z"/>
				</g>
				<path style="fill:#FFA8A7;" d="M289.609,440.798l-0.154,4.671c-0.033,0.993,0.724,1.844,1.715,1.91
					c1.604,0.106,3.167,0.1,4.708-0.046c1.311-0.123,2.336-1.187,2.407-2.502l0.185-3.449L289.609,440.798z"/>
			</g>
			<g>
				<g>
					<path style="fill:#263238;" d="M320.106,438.313c-0.049,0.694-0.214,1.378-0.625,1.929c-0.516,0.692-1.356,1.082-2.204,1.241
						c-2.05,0.384-4.286-0.536-5.471-2.252c-0.587-0.85-0.922-1.851-1.478-2.722c-0.771-1.209-1.929-2.111-3.068-2.983
						c-1.138-0.872-2.301-1.764-3.091-2.961c-0.764-1.158-1.114-2.676-0.591-3.952c-0.109,0.156-0.208,0.32-0.289,0.497
						c-0.615,1.341-0.251,2.973,0.555,4.207s1.993,2.154,3.154,3.053c1.161,0.899,2.343,1.829,3.13,3.075
						c0.567,0.898,0.908,1.93,1.508,2.806c1.21,1.769,3.491,2.718,5.583,2.322c0.866-0.164,1.723-0.566,2.249-1.279
						c0.555-0.753,0.672-1.745,0.654-2.684C320.12,438.511,320.111,438.412,320.106,438.313z"/>
					<path style="fill:#BA68C8;" d="M318.69,432.449c-1.42-2.489-4.348-4.3-6.607-6.062c-1.282-1-2.758-1.854-4.378-1.988
						c-1.621-0.134-3.395,0.608-4.078,2.084c-0.02,0.042-0.03,0.087-0.047,0.13c-0.523,1.276-0.173,2.793,0.591,3.952
						c0.789,1.197,1.953,2.089,3.091,2.961c1.138,0.872,2.296,1.774,3.068,2.983c0.556,0.871,0.89,1.872,1.478,2.722
						c1.185,1.716,3.421,2.636,5.471,2.252c0.849-0.159,1.689-0.549,2.204-1.241c0.411-0.551,0.576-1.235,0.625-1.929
						c0.016-0.225,0.02-0.451,0.015-0.674C320.085,435.826,319.588,434.024,318.69,432.449z"/>
				</g>
				<path style="fill:#FFA8A7;" d="M312.532,430.292v4.245c3.874,1.618,6.606-0.292,6.606-0.292l0.398-3.821L312.532,430.292z"/>
			</g>
			<path style="fill:#455A64;" d="M320.651,353.272c1.273,3.82,0.881,23.848,0.138,41.253c1.214,8.471,1.173,26.822-0.419,40.088
				c0,0-4.428,2.442-10.585,0.211l-3.753-40.269l-0.869-20.694c0,0-1.572,18.36-3.376,30.139c0.654,8.646-0.775,25.18-2.047,42.81
				c0,0-6.811,3.976-13.574-0.377c-2.371-38.983,1.477-78.466,2.262-91.25L320.651,353.272z"/>
			<path style="opacity:0.3;" d="M305.692,386.462l-0.709-16.878c4.362,0,8.41-3.26,11.488-6.351
				c-2.957,5.267-8.688,7.602-8.688,7.602L305.692,386.462z"/>
		</g>
		<path style="fill:#BA68C8;" d="M287.761,323.164v33.052c19.461,8.154,32.074,0.788,33.786-3.044
			c-0.897-13.455,2.283-29.192,2.039-35.879c-0.245-6.686-1.065-14.219-11.432-12.709l-11.025,1.075l-5.593,1.359L287.761,323.164z"
			/>
		<path style="opacity:0.3;fill:#FFFFFF;" d="M287.761,323.164v33.052c19.461,8.154,32.074,0.788,33.786-3.044
			c-0.897-13.455,2.283-29.192,2.039-35.879c-0.245-6.686-1.065-14.219-11.432-12.709l-11.025,1.075l-5.593,1.359L287.761,323.164z"
			/>
		<g>
			<g>
				<path style="fill:#8C5757;" d="M277.43,321.368l-3.714,3.866l-8.903-11.803c1.702-4.68,2.094-8.124,2.175-9.782
					c0.03-0.603-0.449-1.105-1.052-1.105l0,0c-0.406,0-0.776,0.234-0.951,0.601l-1.648,3.469l0,0
					c-0.481-0.158-0.862-0.531-1.03-1.008l-0.323-0.915c-0.216-0.613-0.326-1.258-0.326-1.907V300.5
					c0-1.394-1.491-2.256-2.719-1.597c-1.211,0.651-2.09,1.489-2.694,2.226c-0.714,0.871-1.099,1.962-1.099,3.089v3.082
					c0,0.792,0.138,1.578,0.409,2.322l1.609,4.424c0.147,0.403,0.331,0.792,0.551,1.16l11.493,19.258
					c1.758,2.947,5.764,3.565,8.33,1.287l7.318-6.498L277.43,321.368z"/>
				<path style="fill:#6E3636;" d="M271.44,329.978c0,0,0.61-3.014,2.276-4.744l-1.025-1.358
					C271.921,325.303,270.829,328.084,271.44,329.978z"/>
			</g>
			<path style="fill:#6E3636;" d="M271.44,329.978c0,0,0.61-3.014,2.276-4.744l-1.025-1.358
				C271.921,325.303,270.829,328.084,271.44,329.978z"/>
			<path style="fill:#BA68C8;" d="M276.514,321.394l10.451-10.281c2.327-2.289,5.35-3.739,8.592-4.12l0.188-0.022
				c4.426,9.691-1.424,14.423-1.424,14.423l-9.717,8.929C278.422,327.041,276.514,321.394,276.514,321.394z"/>
			<path style="opacity:0.4;fill:#FFFFFF;" d="M276.514,321.394l10.451-10.281c2.327-2.289,5.35-3.739,8.592-4.12l0.188-0.022
				c4.426,9.691-1.424,14.423-1.424,14.423l-9.717,8.929C278.422,327.041,276.514,321.394,276.514,321.394z"/>
		</g>
		<g>
			<g>
				<path style="fill:#263238;" d="M295.841,282.959c-0.734-0.662-0.228-1.726-0.228-1.726c-0.522,0.188-1.17,0.063-1.642-0.229
					c-0.471-0.292-0.779-0.853-0.719-1.405c0.059-0.552,0.511-1.051,1.062-1.118c-0.513-0.076-0.941-0.445-1.255-0.858
					c-0.314-0.413-0.46-0.95-0.397-1.465c0.117-0.96,0.93-1.727,1.844-2.046c0.913-0.32,1.912-0.271,2.872-0.156
					c-0.36-0.99,0.24-2.315,1.21-2.723c0.858-0.362,1.877-0.101,2.64,0.432c0.763,0.533,1.323,1.303,1.868,2.057
					c2.128-1.067,4.675-1.326,6.884-0.438c2.209,0.888,4.003,2.755,4.801,4.998c1.742,0.504,3.15,2.066,3.655,3.808
					c0.505,1.742,0.28,3.631-0.314,5.344c-0.594,1.713-1.539,3.28-2.5,4.818c-0.456,0.731-0.917,1.458-1.378,2.186
					c-0.579,0.913-2.057,3.184-2.636,4.097c-2.517,1.284-5.743,0.977-8.152-0.501c-2.409-1.478-4.124-3.898-5.234-6.497
					C297.111,288.939,296.381,285.733,295.841,282.959z"/>
				<path style="fill:#272525;" d="M308.095,299.477c-1.614,0-3.271-0.449-4.708-1.331c-2.202-1.351-4.03-3.618-5.286-6.558
					c-1.154-2.702-1.878-5.989-2.38-8.563c-0.543-0.52-0.43-1.231-0.317-1.602c-0.481,0.087-1.043-0.024-1.501-0.309
					c-0.529-0.327-0.844-0.941-0.781-1.528c0.052-0.475,0.351-0.894,0.753-1.102c-0.399-0.183-0.711-0.508-0.92-0.782
					c-0.336-0.441-0.49-1.011-0.422-1.56c0.114-0.938,0.871-1.783,1.929-2.153c0.894-0.313,1.87-0.277,2.734-0.186
					c-0.244-1.019,0.365-2.28,1.341-2.691c0.819-0.345,1.879-0.174,2.765,0.446c0.759,0.529,1.31,1.271,1.835,1.998
					c2.262-1.103,4.767-1.248,6.893-0.393c2.222,0.893,4.031,2.764,4.853,5.013c1.705,0.521,3.145,2.035,3.679,3.878
					c0.589,2.032,0.153,4.071-0.316,5.424c-0.59,1.702-1.524,3.263-2.512,4.844c-0.456,0.731-0.917,1.459-1.378,2.186
					c-0.294,0.464-0.819,1.276-1.341,2.084c-0.507,0.784-1.011,1.565-1.296,2.014l-0.02,0.03l-0.031,0.017
					C310.583,299.204,309.352,299.477,308.095,299.477z M295.864,281.004l-0.134,0.285c-0.02,0.04-0.454,0.986,0.197,1.573
					l0.032,0.029l0.009,0.043c0.499,2.565,1.221,5.856,2.372,8.552c0.86,2.014,2.458,4.767,5.183,6.437
					c2.471,1.517,5.602,1.717,7.992,0.514c0.289-0.455,0.782-1.219,1.278-1.986c0.522-0.807,1.046-1.618,1.339-2.081
					c0.461-0.727,0.922-1.454,1.378-2.186c0.979-1.567,1.905-3.114,2.486-4.791c0.457-1.316,0.883-3.299,0.313-5.266
					c-0.509-1.754-1.941-3.249-3.566-3.719l-0.064-0.019l-0.022-0.063c-0.785-2.208-2.552-4.047-4.727-4.921
					c-2.085-0.838-4.557-0.682-6.777,0.434l-0.1,0.05l-0.064-0.09c-0.533-0.737-1.084-1.501-1.837-2.027
					c-0.639-0.446-1.636-0.789-2.515-0.419c-0.906,0.382-1.47,1.649-1.139,2.559l0.073,0.199l-0.211-0.025
					c-0.878-0.104-1.901-0.17-2.814,0.15c-0.79,0.276-1.64,0.983-1.757,1.939c-0.059,0.483,0.076,0.982,0.371,1.37
					c0.249,0.326,0.653,0.732,1.172,0.809l0.959,0.143l-0.963,0.115c-0.478,0.058-0.895,0.498-0.948,1.003
					c-0.053,0.489,0.212,1.004,0.658,1.28c0.477,0.294,1.073,0.378,1.529,0.217L295.864,281.004z"/>
			</g>
			<path style="fill:#6E3636;" d="M294.578,288.622l-1.741,3.026l1.723,0.637C294.503,291.064,294.508,289.842,294.578,288.622z"/>
			<path style="fill:#8C5757;" d="M295.841,282.959c-0.525,1.658-1.154,3.758-1.263,5.663c-0.07,1.22-0.074,2.442-0.018,3.663
				c0.079,1.717,0.268,3.43,0.597,5.117c0.178,0.912,0.41,1.854,1.008,2.565c0.676,0.804,1.741,1.199,2.788,1.283
				c1.047,0.084,2.094-0.109,3.127-0.301v4.964c3.767,0.888,6.888,1.281,9.841-0.993l-0.314-6.384
				c-1.581,0.259-3.256,0.046-5.302-0.837c-2.603-1.404-3.331-3.647-2.965-4.901c0.384,0.632,1.314,0.879,2.035,0.715
				c0.721-0.164,1.319-0.701,1.689-1.342c0.37-0.641,0.537-1.379,0.63-2.113c0.114-0.894,0.111-1.865-0.386-2.617
				c-0.61-0.924-1.877-1.278-2.947-0.993c-1.07,0.284-1.937,1.11-2.481,2.074c-0.172,0.305-0.315,0.623-0.437,0.95
				c-0.22,0.595-1.084,0.486-1.142-0.146c-0.13-1.418,0.12-2.873,0.747-4.153c-0.464,0.202-0.885,0.34-1.391,0.323
				c-0.506-0.017-1.023-0.22-1.332-0.62c-0.309-0.4-0.362-1.01-0.052-1.41C297.025,284.094,295.841,282.959,295.841,282.959z"/>
		</g>
	</g>
</g>
<g id="Character_1">
	<g>
		<g>
			<path style="fill:#455A64;" d="M205.929,438.003c3.144,3.14,7.142,5.416,11.447,6.518c1.242,0.318,2.705,0.7,3.163,1.897
				c0.432,1.129-0.325,2.392-1.291,3.119c-1.541,1.158-3.59,1.462-5.505,1.247c-1.915-0.215-3.742-0.899-5.554-1.557
				c-1.812-0.658-3.66-1.301-5.583-1.426c-0.908-0.059-1.827-0.002-2.724-0.159c-0.897-0.156-1.803-0.569-2.288-1.339
				c0.013-5.55,1.441-7.538,1.441-7.538L205.929,438.003z"/>
			<path style="fill:#FFA8A7;" d="M206.064,435.549v3.758c-2.529,2.764-6.54,0.921-7.028-0.542l-0.126-3.216H206.064z"/>
			<path style="fill:#455A64;" d="M187.166,422.071c4.499-4.065,6.992-3.902,8.076-3.089c1.084,0.813,3.035,3.415-1.951,7.805
				c-4.986,4.39-4.607,7.1-8.076,7.1c-3.469,0-2.818-3.469-2.818-3.469c0-1.653,0.542-3.55,0.542-3.55L187.166,422.071z"/>
			<path style="fill:#FFA8A7;" d="M188.792,424.673v2.656c-2.114,1.816-5.664,0.786-5.854-0.461l0.163-2.629L188.792,424.673z"/>
			<g>
				<path style="fill:#263238;" d="M209.388,350.851l1.951,46.179l-5.276,38.519c-2.818,1.807-7.154,0-7.154,0
					c-0.578-11.852-3.18-28.654-1.12-37.652l-3.903-24.824l-1.301,19.946c-0.217,11.707-3.252,24.174-3.794,31.653
					c-3.144,1.247-5.691-0.434-5.691-0.434c-1.752-15.574-5.221-23.957-1.897-35.086c-2.313-20.958-4.293-33.966-1.387-39.277
					L209.388,350.851z"/>
				<path style="opacity:0.2;" d="M193.143,368.343l0.743,4.73l-0.41,6.289l-1.487-9.866c-4.499-0.596-6.45-4.119-6.45-4.119
					C189.063,367.979,193.143,368.343,193.143,368.343z"/>
			</g>
		</g>
		<g>
			<g>
				<path style="fill:#455A64;" d="M200.415,307.603l-13.615-1.82c-5.699-0.554-8.153,5.699-8.074,11.478
					c0.047,3.406,1.826,12.04,2.918,20.937c-1.196,2.881-1.738,4.69-2.444,8.961c-1.35,6.654,21.109,10.38,29.68,5.882
					c1.061-0.557,1.683-1.702,1.644-2.899c-0.393-12.096-1.877-26.745-1.877-26.745L200.415,307.603z"/>
				<path style="opacity:0.3;fill:#FFFFFF;" d="M200.415,307.603l-13.615-1.82c-5.699-0.554-8.153,5.699-8.074,11.478
					c0.047,3.406,1.826,12.04,2.918,20.937c-1.196,2.881-1.738,4.69-2.444,8.961c-1.35,6.654,21.109,10.38,29.68,5.882
					c1.061-0.557,1.683-1.702,1.644-2.899c-0.393-12.096-1.877-26.745-1.877-26.745L200.415,307.603z"/>
				<g>
					<path style="fill:#F28F8F;" d="M206.968,288.091c0.969-2.001,1.598-4.228,1.371-6.44c-0.227-2.212-1.416-4.396-3.377-5.444
						c-1.961-1.048-4.681-0.698-6.044,1.058c-3.607-1.794-8.125-1.824-11.478,0.408c-3.354,2.233-5.376,6.325-5.113,10.345
						c0.152,2.314,1,4.592,0.738,6.896c-0.154,1.355-0.688,2.727-0.332,4.044c0.297,1.1,1.189,1.963,2.199,2.489
						c1.011,0.527,3.373,0.39,4.489,0.622c3.408,3.098,7.691,1.938,10.413-0.828C202.556,298.476,206.968,288.091,206.968,288.091z"
						/>
					<path style="opacity:0.5;" d="M206.968,288.091c0.969-2.001,1.598-4.228,1.371-6.44c-0.227-2.212-1.416-4.396-3.377-5.444
						c-1.961-1.048-4.681-0.698-6.044,1.058c-3.607-1.794-8.125-1.824-11.478,0.408c-3.354,2.233-5.376,6.325-5.113,10.345
						c0.152,2.314,1,4.592,0.738,6.896c-0.154,1.355-0.688,2.727-0.332,4.044c0.297,1.1,1.189,1.963,2.199,2.489
						c1.011,0.527,3.373,0.39,4.489,0.622c3.408,3.098,7.691,1.938,10.413-0.828C202.556,298.476,206.968,288.091,206.968,288.091z"
						/>
					<path style="fill:#8C5757;" d="M206.968,288.091c0.969-2.001,1.598-4.228,1.371-6.44c-0.227-2.212-1.416-4.396-3.377-5.444
						c-1.961-1.048-4.681-0.698-6.044,1.058c-3.607-1.794-8.125-1.824-11.478,0.408c-3.354,2.233-5.376,6.325-5.113,10.345
						c0.152,2.314,1,4.592,0.738,6.896c-0.154,1.355-0.688,2.727-0.332,4.044c0.297,1.1,1.189,1.963,2.199,2.489
						c1.011,0.527,3.373,0.39,4.489,0.622c3.408,3.098,7.691,1.938,10.413-0.828C202.556,298.476,206.968,288.091,206.968,288.091z"
						/>
					<polygon style="fill:#F28F8F;" points="207.677,291.168 209.806,294.869 207.474,295.731 					"/>
					<path style="fill:#FFA8A7;" d="M207.918,289.518c-0.342-3.246-1.292-6.307-3.406-7.859c0.732,4.255-0.732,9.123-2.434,11.616
						c-0.206-1.07-0.768-2.05-1.573-2.783c-0.806-0.733-2.023-1.073-3.025-0.646c-0.708,0.302-1.232,0.944-1.521,1.657
						c-0.562,1.391-0.24,3.096,0.791,4.186c1.031,1.09,2.716,1.506,4.136,1.021c-0.479,2.898-2.953,5.261-5.821,5.896
						c-1.879,0.416-3.844,0.167-5.644-0.537l-0.88,4.375c3.562,3.8,9.647,1.247,9.647,1.247l0.801-4.304
						c7.005,0.416,7.658,0.297,8.43-3.562C207.845,297.706,208.334,293.474,207.918,289.518z"/>
					<path style="fill:#6E3636;" d="M192.404,284.807c-1-2.788-2.988-5.268-5.576-6.661c-2.976,2.305-4.748,6.111-4.501,9.874
						c0.152,2.314,1,4.592,0.738,6.896c-0.154,1.355-0.688,2.727-0.332,4.044c0.297,1.1,1.189,1.963,2.199,2.489
						c1.011,0.527,3.373,0.39,4.489,0.622c0.147,0.134,0.298,0.249,0.448,0.367c1.156-2.28,2.153-4.638,2.772-7.113
						C193.505,291.873,193.605,288.156,192.404,284.807z"/>
					<path style="fill:#F28F8F;" d="M190.46,282.374c-1.091-3.6-4.671-6.291-8.433-6.337c-3.761-0.046-7.407,2.555-8.587,6.127
						c-2.113,6.397,3.3,13.197,2.116,19.829c-0.426,2.388-1.689,4.564-2.123,6.951c-0.5,2.752,0.183,5.698,1.842,7.95
						c1.659,2.252,4.271,3.777,7.047,4.115c-1.522-1.676-1.55-4.267-0.682-6.358c0.867-2.091,2.412-3.813,3.745-5.642
						C190.763,301.632,193.108,291.11,190.46,282.374z"/>
					<path style="opacity:0.5;" d="M190.46,282.374c-1.091-3.6-4.671-6.291-8.433-6.337c-3.761-0.046-7.407,2.555-8.587,6.127
						c-2.113,6.397,3.3,13.197,2.116,19.829c-0.426,2.388-1.689,4.564-2.123,6.951c-0.5,2.752,0.183,5.698,1.842,7.95
						c1.659,2.252,4.271,3.777,7.047,4.115c-1.522-1.676-1.55-4.267-0.682-6.358c0.867-2.091,2.412-3.813,3.745-5.642
						C190.763,301.632,193.108,291.11,190.46,282.374z"/>
					<path style="fill:#8C5757;" d="M190.46,282.374c-1.091-3.6-4.671-6.291-8.433-6.337c-3.761-0.046-7.407,2.555-8.587,6.127
						c-2.113,6.397,3.3,13.197,2.116,19.829c-0.426,2.388-1.689,4.564-2.123,6.951c-0.5,2.752,0.183,5.698,1.842,7.95
						c1.659,2.252,4.271,3.777,7.047,4.115c-1.522-1.676-1.55-4.267-0.682-6.358c0.867-2.091,2.412-3.813,3.745-5.642
						C190.763,301.632,193.108,291.11,190.46,282.374z"/>
				</g>
				<g>
					<g>
						<polygon style="fill:#BA68C8;" points="245.657,296.672 236.09,324.397 216.31,313.421 225.771,286.003 						"/>
						<polygon style="opacity:0.3;" points="245.657,296.672 236.09,324.397 216.31,313.421 225.771,286.003 						"/>
						<polygon style="opacity:0.2;fill:#FFFFFF;" points="245.657,296.672 236.09,324.397 216.31,313.421 225.771,286.003 						"/>
						<polygon style="fill:#FFFFFF;" points="219.248,312.296 227.125,289.464 242.71,297.825 234.748,320.896 						"/>
						<g>
							<polygon style="fill:#455A64;" points="229.872,291.159 238.532,295.703 238.908,294.548 237.227,293.067 232.483,290.682 
								230.324,290.281 							"/>
							<polygon style="fill:#455A64;" points="232.483,290.682 232.857,289.804 237.489,292.289 237.227,293.067 							"/>
							<polygon style="fill:#455A64;" points="230.168,288.362 240.639,293.979 241.092,292.891 230.525,287.344 							"/>
							<path style="fill:#455A64;" d="M233,288.643c0.914-2.88,6.387-0.169,5.319,2.792L233,288.643z"/>
						</g>
						<path style="fill:#FFA8A7;" d="M214.887,319.046l7.304,9.488l12.689-12.482c0.708-0.697,1.16-1.616,1.286-2.602
							c0.606-4.737,1.919-8.115,3.604-7.521c1.058,0.373-0.298,4.985-0.298,4.985l1.581-0.904l1.845-5.346h0.834
							c0.898,0,1.698,0.569,1.992,1.417l0.792,2.283c0.961,2.771,0.01,5.846-2.348,7.59l-2.785,2.06
							c-0.417,0.309-0.777,0.692-1.062,1.125c-5.473,8.304-11.326,15.389-14.882,19.023c-1.271,1.299-3.284,1.495-4.801,0.492
							c-7.768-5.134-14.185-13.811-14.185-13.811L214.887,319.046z"/>
					</g>
					<path style="fill:#455A64;" d="M200.415,307.603l1.242,0.15c4.105,0.497,7.838,2.626,10.357,5.906l9.299,12.11
						c-0.831,7.599-7.837,8.905-7.837,8.905l-10.211-10.805C197.922,318.052,200.415,307.603,200.415,307.603z"/>
					<path style="opacity:0.4;fill:#FFFFFF;" d="M200.415,307.603l1.242,0.15c4.105,0.497,7.838,2.626,10.357,5.906l9.299,12.11
						c-0.831,7.599-7.837,8.905-7.837,8.905l-10.211-10.805C197.922,318.052,200.415,307.603,200.415,307.603z"/>
				</g>
			</g>
		</g>
	</g>
</g>
</svg>
